<svg width="30" height="30" viewBox="0 0 30 30" fill="none" xmlns="http://www.w3.org/2000/svg">
<path d="M3.75 3.75H6.25L6.75 6.25L3.75 3.75ZM8.75 16.25H21.25L26.25 6.25H6.75L8.75 16.25ZM8.75 16.25L6.75 6.25L8.75 16.25ZM8.75 16.25L5.88375 19.1163C5.09625 19.9038 5.65375 21.25 6.7675 21.25H21.25L8.75 16.25ZM21.25 21.25C20.587 21.25 19.9511 21.5134 19.4822 21.9822C19.0134 22.4511 18.75 23.087 18.75 23.75C18.75 24.413 19.0134 25.0489 19.4822 25.5178C19.9511 25.9866 20.587 26.25 21.25 26.25C21.913 26.25 22.5489 25.9866 23.0178 25.5178C23.4866 25.0489 23.75 24.413 23.75 23.75C23.75 23.087 23.4866 22.4511 23.0178 21.9822C22.5489 21.5134 21.913 21.25 21.25 21.25ZM11.25 23.75C11.25 24.413 10.9866 25.0489 10.5178 25.5178C10.0489 25.9866 9.41304 26.25 8.75 26.25C8.08696 26.25 7.45107 25.9866 6.98223 25.5178C6.51339 25.0489 6.25 24.413 6.25 23.75C6.25 23.087 6.51339 22.4511 6.98223 21.9822C7.45107 21.5134 8.08696 21.25 8.75 21.25C9.41304 21.25 10.0489 21.5134 10.5178 21.9822C10.9866 22.4511 11.25 23.087 11.25 23.75V23.75Z" stroke="#FF8B00" stroke-width="2" stroke-linecap="round" stroke-linejoin="round"/>
</svg>
