<svg width="52" height="51" viewBox="0 0 52 51" fill="none" xmlns="http://www.w3.org/2000/svg">
<g clip-path="url(#clip0)">
<path d="M0.365061 35.0326C0.365061 35.038 0.364458 35.0434 0.364458 35.0489C0.364458 41.6224 5.79981 46.9512 12.5048 46.9512C19.2098 46.9512 24.6451 41.6225 24.6451 35.0489C24.6451 28.4752 19.2092 23.1465 12.5047 23.1465C11.1267 23.1465 9.80767 23.3821 8.57344 23.797C11.3048 8.43512 23.5238 -1.47169 12.1969 6.68183C-0.36293 15.7232 0.351007 34.6857 0.365061 35.0326Z" fill="#FF8B00"/>
<path d="M39.8562 23.1466C38.4782 23.1466 37.1592 23.3822 35.9243 23.7971C38.6564 8.43522 50.8754 -1.4716 39.5484 6.68193C26.9886 15.7232 27.7024 34.6857 27.7166 35.0326C27.7166 35.038 27.716 35.0434 27.716 35.0489C27.716 41.6224 33.1512 46.9512 39.8562 46.9512C46.5613 46.9512 51.9966 41.6225 51.9966 35.0489C51.9966 28.4752 46.5607 23.1466 39.8562 23.1466Z" fill="#FF8B00"/>
</g>
<defs>
<clipPath id="clip0">
<rect width="51" height="50" fill="white" transform="translate(51.3536 50.3535) rotate(180)"/>
</clipPath>
</defs>
</svg>
