<svg width="50" height="50" viewBox="0 0 50 50" fill="none" xmlns="http://www.w3.org/2000/svg">
<g clip-path="url(#clip0)">
<path d="M49.7128 9.47023C49.3804 9.10674 48.8452 9.01228 48.4085 9.23983C47.9595 9.44384 47.495 9.61177 47.0193 9.74201C47.7612 8.79267 48.3213 7.71443 48.6715 6.56149C48.8257 5.98135 48.4803 5.38603 47.9002 5.23185C47.5904 5.14951 47.2601 5.20811 46.9976 5.39194C45.3448 6.28635 43.5881 6.97349 41.7671 7.43766C38.0184 3.89936 32.3081 3.45832 28.0603 6.37898C24.7883 8.59131 22.9869 12.4149 23.3646 16.3465C16.2718 15.7421 9.74598 12.2273 5.33823 6.63761C5.1118 6.3637 4.7692 6.21288 4.41427 6.23112C4.05435 6.25272 3.72866 6.45143 3.54473 6.76153C2.04878 9.20691 1.61538 12.1567 2.34471 14.929C2.71869 16.3534 3.35977 17.6939 4.2339 18.8791C3.84015 18.6863 3.46962 18.4493 3.12957 18.1726C2.66336 17.7944 1.97887 17.8658 1.60061 18.332C1.44367 18.5255 1.35787 18.767 1.35777 19.0162C1.42238 23.038 3.63083 26.7189 7.14916 28.6685C6.6745 28.6102 6.20594 28.5098 5.74911 28.3685C5.17427 28.1956 4.56804 28.5213 4.39511 29.0962C4.3197 29.347 4.33733 29.6166 4.44474 29.8555C5.97177 33.2761 9.0246 35.7744 12.6797 36.5947C9.19733 38.5594 5.18742 39.3849 1.21215 38.9556C0.69672 38.8897 0.208397 39.2031 0.0534015 39.6991C-0.106384 40.1912 0.102723 40.7276 0.553443 40.9817C5.42088 43.8738 10.958 45.4471 16.6189 45.547C22.0497 45.5271 27.3539 43.905 31.8669 40.8839C40.4823 35.1664 45.8519 24.901 45.1041 15.7161C46.9463 14.3525 48.5442 12.687 49.8303 10.79C50.0947 10.3742 50.0465 9.8327 49.7128 9.47023Z" fill="#7A7A7A"/>
</g>
<defs>
<clipPath id="clip0">
<rect width="50" height="50" fill="white"/>
</clipPath>
</defs>
</svg>
