<svg width="30" height="30" viewBox="0 0 30 30" fill="none" xmlns="http://www.w3.org/2000/svg">
<path d="M20 8.75C20 10.0761 19.4732 11.3479 18.5355 12.2855C17.5979 13.2232 16.3261 13.75 15 13.75C13.6739 13.75 12.4021 13.2232 11.4645 12.2855C10.5268 11.3479 10 10.0761 10 8.75C10 7.42392 10.5268 6.15215 11.4645 5.21447C12.4021 4.27678 13.6739 3.75 15 3.75C16.3261 3.75 17.5979 4.27678 18.5355 5.21447C19.4732 6.15215 20 7.42392 20 8.75V8.75ZM15 17.5C12.6794 17.5 10.4538 18.4219 8.81282 20.0628C7.17187 21.7038 6.25 23.9294 6.25 26.25H23.75C23.75 23.9294 22.8281 21.7038 21.1872 20.0628C19.5462 18.4219 17.3206 17.5 15 17.5V17.5Z" stroke="#FF8B00" stroke-width="2" stroke-linecap="round" stroke-linejoin="round"/>
</svg>
