<svg width="18" height="18" viewBox="0 0 18 18" fill="none" xmlns="http://www.w3.org/2000/svg">
<path d="M6.66673 4.53358C4.54579 6.72799 5.00862 10.3697 7.43813 11.9829C7.51818 12.0361 7.62468 12.0256 7.69344 11.9584C8.20491 11.4586 8.6376 10.9746 9.01647 10.3589C9.07443 10.2647 9.03838 10.1425 8.94113 10.0898C8.57056 9.88904 8.20181 9.51259 7.99423 9.11494L7.99398 9.11508C7.74532 8.61993 7.66066 8.06488 7.79231 7.49164C7.79245 7.49168 7.79259 7.49171 7.79273 7.49171C7.94422 6.75782 8.7321 6.07513 9.33386 5.44376C9.33259 5.44333 9.33136 5.44288 9.3301 5.44245L11.5847 3.14129C12.4832 2.22425 13.9612 2.21669 14.869 3.12452C15.786 4.02298 15.8011 5.50837 14.9027 6.42537L13.537 7.82972C13.4738 7.89472 13.4533 7.98954 13.4829 8.07525C13.7973 8.98709 13.8747 10.2728 13.664 11.2442C13.658 11.2714 13.6916 11.2892 13.711 11.2693L16.6176 8.30275C18.4744 6.40768 18.4586 3.32225 16.5826 1.44625C14.6681 -0.468267 11.5513 -0.452335 9.65646 1.4816L6.67838 4.52112C6.67444 4.52527 6.67071 4.5295 6.66673 4.53358Z" fill="white"/>
<path d="M12.1009 12.4008C12.1008 12.4009 12.1007 12.401 12.1007 12.4011C12.1026 12.4003 12.1043 12.3996 12.1062 12.3988C12.6993 11.3141 12.8161 10.0701 12.5381 8.85742L12.5368 8.85872L12.5355 8.85812C12.2715 7.77802 11.5472 6.70549 10.5635 6.04514C10.4789 5.98833 10.3437 5.99491 10.2645 6.05899C9.76621 6.46189 9.27848 6.97853 8.95665 7.63783C8.90611 7.74134 8.94396 7.86567 9.04356 7.9235C9.41705 8.14033 9.75435 8.45779 9.98019 8.87926L9.98054 8.87901C10.1565 9.17674 10.33 9.74168 10.2176 10.3487C10.2176 10.3487 10.2175 10.3487 10.2174 10.3487C10.1126 11.1534 9.2999 11.8916 8.65386 12.5568L8.65417 12.5571C8.1624 13.06 6.91228 14.3344 6.41171 14.8458C5.51324 15.7628 4.02786 15.778 3.11086 14.8795C2.19385 13.9811 2.17869 12.4957 3.07716 11.5787L4.44687 10.1701C4.50894 10.1063 4.53005 10.0135 4.50244 9.92883C4.1983 8.99568 4.11498 7.73895 4.30695 6.76866C4.3123 6.74161 4.27902 6.72434 4.25972 6.74404L1.39689 9.66595C-0.478901 11.5805 -0.463003 14.6975 1.43227 16.5928C3.34669 18.4685 6.44769 18.4368 8.32342 16.5224C8.97505 15.7935 11.7645 13.2109 12.1009 12.4008Z" fill="white"/>
</svg>
