<svg width="1920" height="530" viewBox="0 0 1920 530" fill="none" xmlns="http://www.w3.org/2000/svg">
<path d="M400.118 346.894C46.1659 425.363 -269.178 566.383 -522.994 745.598C-475.417 748.303 -426.522 751.204 -375.873 754.215C161.633 786.092 1017.05 899.823 1980.84 520.449C1581.33 291.221 1003.13 213.21 400.118 346.894Z" fill="url(#paint0_linear)"/>
<path d="M2074.04 499.786C1737.49 322.484 1279.05 242.456 780.45 288.447C706.696 314.747 641.895 352.517 656.817 400.402C685.054 490.981 911.898 449.835 1028.6 440.303C1162.12 429.387 1351.59 425.608 1368.75 484.669C1381.27 527.754 1291.8 554.379 1245.15 564.719C1198.51 575.06 1125.56 576.799 1119.37 604.511C1111.2 641.154 1227.34 628.076 1225.51 654.037C1222.82 692.504 1072.98 718.475 1050.27 756.129C1370.81 714.19 1715.02 636.637 2074.04 499.786Z" fill="url(#paint1_linear)"/>
<path d="M235.892 715.431C268.643 665.693 575.868 592.486 535.464 519.895C500.67 457.405 147.061 589.019 113.955 516.501C94.3431 473.52 167.445 424.918 240.41 388.07C-33.8266 467.837 -279.25 588.647 -482.784 736.685C-436.908 739.766 -389.761 743.054 -340.922 746.468C-172.505 758.213 28.3807 778.845 254.572 788.628C232.579 766.307 219.504 740.307 235.892 715.431Z" fill="url(#paint2_linear)"/>
<defs>
<linearGradient id="paint0_linear" x1="-503.542" y1="833.289" x2="1930.58" y2="293.657" gradientUnits="userSpaceOnUse">
<stop stop-color="#005092"/>
<stop offset="1" stop-color="#8C6AE2"/>
</linearGradient>
<linearGradient id="paint1_linear" x1="696.514" y1="580.173" x2="2026.5" y2="285.322" gradientUnits="userSpaceOnUse">
<stop stop-color="#1AA9E8"/>
<stop offset="1" stop-color="#005092"/>
</linearGradient>
<linearGradient id="paint2_linear" x1="-479.921" y1="749.609" x2="537.674" y2="524.014" gradientUnits="userSpaceOnUse">
<stop stop-color="#005092"/>
<stop offset="1" stop-color="#1AA9E8"/>
</linearGradient>
</defs>
</svg>
