<svg width="632" height="567" viewBox="0 0 632 567" fill="none" xmlns="http://www.w3.org/2000/svg">
<path d="M321.254 497.676C455.994 497.676 565.222 399.674 565.222 278.781C565.222 157.889 455.994 59.8863 321.254 59.8863C186.514 59.8863 77.285 157.889 77.285 278.781C77.285 399.674 186.514 497.676 321.254 497.676Z" fill="url(#paint0_linear)"/>
<path d="M627.12 497.913C621.6 480.757 613.528 465.042 604.705 449.856C587.302 420.223 566.534 392.789 544.77 366.175C541.974 371.939 538.965 377.63 535.591 383.203C554.376 407.336 571.83 432.29 586.347 458.266C594.408 472.886 601.595 487.926 606.047 503.057C608.232 510.582 609.666 518.197 609.513 525.129C609.402 532.124 607.308 537.889 603.607 540.999C599.988 544.191 593.635 545.833 585.909 545.751C578.275 545.714 569.909 544.255 561.634 542.13C545.014 537.834 528.515 531.085 512.505 523.56C480.423 508.374 449.927 489.759 420.326 470.177C361.143 430.812 305.925 386.331 253.909 339.214C227.743 315.774 202.381 291.614 178.085 266.65C153.678 241.788 130.074 216.286 108.127 189.773C86.1497 163.323 65.4836 135.906 48.5075 107.149C40.121 92.7931 32.5984 77.9995 27.7902 63.0873C25.4115 55.6722 23.7852 48.1751 23.7344 41.3164C23.6327 34.4577 25.4317 28.8212 28.9083 25.556C36.8372 18.0588 55.0233 19.363 71.3082 23.221C88.1827 27.1976 104.966 33.6369 121.261 40.8605C150.273 53.8574 178.075 69.5812 205.064 86.3723C211.153 83.4081 217.364 80.7814 223.647 78.3188C194.126 58.6821 163.539 40.1307 130.572 24.4888C113.657 16.5721 96.1522 9.31212 77.0312 4.35963C67.4554 1.93354 57.4221 0.0547237 46.4842 0C41.0152 0 35.2618 0.510726 29.3761 2.07947C26.4383 2.91857 23.4801 3.95821 20.6439 5.44487C19.2919 6.10156 17.7571 7.00471 16.1916 8.1083C14.4127 9.3031 14.1994 9.63121 13.1117 10.4338L12.9895 10.5251L12.6842 10.7987C2.80352 19.6092 0.140717 31.5026 0.0085672 41.1157C-0.143913 51.0207 1.75707 60.1323 4.26792 68.8425C9.41159 86.2264 17.157 102.187 25.6553 117.629C42.8246 148.42 63.4199 177.058 85.2856 204.721C129.23 259.938 179.183 310.767 232.348 358.559C285.95 405.959 342.683 450.604 403.95 490.343C434.659 510.107 466.629 528.503 500.917 543.954C518.117 551.578 535.896 558.538 555.271 563.153C564.969 565.415 575.113 567.129 586.153 566.992C596.878 566.874 610.123 564.484 619.943 555.628C629.661 546.681 632.06 534.842 631.999 525.302C631.907 515.507 629.814 506.505 627.12 497.913Z" fill="url(#paint1_linear)"/>
<defs>
<linearGradient id="paint0_linear" x1="148.753" y1="124.004" x2="456.505" y2="467.009" gradientUnits="userSpaceOnUse">
<stop stop-color="#8C6AE2"/>
<stop offset="1" stop-color="#5A55F8"/>
</linearGradient>
<linearGradient id="paint1_linear" x1="232.319" y1="358.575" x2="367.887" y2="207.477" gradientUnits="userSpaceOnUse">
<stop stop-color="#FFE2A8"/>
<stop offset="1" stop-color="#745B7F"/>
</linearGradient>
</defs>
</svg>
