<svg width="1920" height="780" viewBox="0 0 1920 780" fill="none" xmlns="http://www.w3.org/2000/svg">
<path d="M-119.575 180.815C-145.656 82.3898 -91.8873 -28.5684 21.5321 -66.796C110.767 -96.894 247.408 -107.115 430.518 -71.2135C914.917 23.7713 872.726 -86.0219 1060.38 -172.32C1225.45 -248.276 1427.09 -341.466 1778.21 -167.196C2044.46 -35.0372 1887.78 172.512 2067.63 299.118C2183.3 380.484 1989.76 776.63 1430.36 692.137C870.95 607.644 744.58 728.388 491.617 773.392C237.18 818.678 -289.314 554.346 -147.954 431.559C-64.7499 359.253 -103.192 242.686 -119.575 180.815Z" fill="#23295E"/>
<path d="M147.369 135.618C154.415 135.601 160.112 130.887 160.093 125.09C160.075 119.293 154.348 114.607 147.303 114.623C140.257 114.64 134.561 119.354 134.579 125.151C134.597 130.949 140.324 135.635 147.369 135.618Z" fill="white"/>
<path d="M432.456 636.47C441.067 636.449 448.03 630.688 448.008 623.602C447.985 616.516 440.986 610.789 432.375 610.81C423.763 610.83 416.801 616.591 416.823 623.677C416.846 630.763 423.845 636.49 432.456 636.47Z" fill="white"/>
<path d="M1876.44 502.363C1884.27 502.344 1890.6 497.107 1890.58 490.665C1890.56 484.223 1884.2 479.017 1876.37 479.036C1868.54 479.054 1862.21 484.292 1862.23 490.733C1862.25 497.175 1868.62 502.381 1876.44 502.363Z" fill="white"/>
<path d="M1643.02 647.554C1651.63 647.533 1658.59 641.772 1658.57 634.686C1658.55 627.6 1651.55 621.873 1642.94 621.894C1634.33 621.914 1627.37 627.675 1627.39 634.761C1627.41 641.847 1634.41 647.574 1643.02 647.554Z" fill="white"/>
<path d="M1243.14 153.976C1257.23 153.942 1268.63 144.515 1268.59 132.92C1268.55 121.325 1257.1 111.953 1243.01 111.987C1228.92 112.021 1217.52 121.448 1217.56 133.043C1217.6 144.638 1229.05 154.01 1243.14 153.976Z" fill="white"/>
<path d="M377.933 428.988C391.241 428.956 402.002 420.052 401.967 409.102C401.932 398.151 391.116 389.299 377.807 389.331C364.499 389.364 353.738 398.267 353.773 409.218C353.808 420.168 364.625 429.02 377.933 428.988Z" fill="white"/>
<path d="M390.812 20.7283C397.857 20.7113 403.554 15.9978 403.536 10.2004C403.517 4.40291 397.791 -0.283116 390.745 -0.266166C383.699 -0.249215 378.003 4.46429 378.021 10.2618C378.039 16.0592 383.766 20.7452 390.812 20.7283Z" fill="white"/>
<path d="M371.656 237.718C377.136 237.705 381.566 234.039 381.552 229.53C381.538 225.021 377.084 221.376 371.604 221.39C366.124 221.403 361.693 225.069 361.708 229.578C361.722 234.087 366.176 237.732 371.656 237.718Z" fill="white"/>
<path d="M1171.9 37.511C1178.16 37.4959 1183.22 33.3061 1183.21 28.1529C1183.19 22.9996 1178.1 18.8342 1171.84 18.8493C1165.58 18.8643 1160.51 23.0541 1160.53 28.2074C1160.54 33.3607 1165.63 37.5261 1171.9 37.511Z" fill="white"/>
<path d="M26.4548 0.610252C34.2833 0.591418 40.6129 -4.64581 40.5925 -11.0874C40.572 -17.529 34.2092 -22.7357 26.3807 -22.7169C18.5523 -22.6981 12.2226 -17.4608 12.2431 -11.0192C12.2635 -4.57761 18.6263 0.629086 26.4548 0.610252Z" fill="white"/>
</svg>
