<svg width="305" height="305" viewBox="0 0 305 305" fill="none" xmlns="http://www.w3.org/2000/svg">
<g clip-path="url(#clip0)">
<path d="M196.463 25.0522L237.642 75.0067C251.437 63.6351 253.401 43.235 242.03 29.4397C230.658 15.6454 210.257 13.6816 196.463 25.0522Z" fill="#FFDA79"/>
<path d="M221.661 98.0696L91.8407 192.125L53.6761 145.828L170.775 36.3397L221.661 98.0696Z" fill="#C7E9F4"/>
<path d="M221.667 98.0682L242.5 80.8942L191.614 19.1663L170.781 36.3403L221.667 98.0682Z" fill="#FFDA79"/>
<path d="M221.667 98.0682L242.5 80.8942L191.614 19.1663L170.781 36.3403L221.667 98.0682Z" fill="#51B3DA"/>
<path d="M61.4691 155.282L40.6359 172.456L63.2102 199.84L84.0434 182.666L61.4691 155.282Z" fill="#51B3DA"/>
<path d="M247.817 24.6701C235.222 9.39122 214.073 6.17468 197.929 15.0418C194.455 10.8264 189.876 10.8748 186.839 13.3785C154.164 40.3127 188.136 9.83992 48.5546 140.349C45.6613 143.054 45.3701 147.543 47.8891 150.599L50.9132 154.268L35.867 166.671C32.671 169.306 32.2159 174.033 34.8505 177.229L57.4239 204.614C60.0615 207.815 64.7926 208.259 67.9815 205.63L83.0287 193.227L86.0537 196.896C88.5728 199.953 93.0329 200.521 96.2416 198.199L136.12 169.307C133.322 180.154 109.566 272.227 106.815 282.892C105.78 286.903 108.192 290.994 112.204 292.028C116.214 293.064 120.306 290.651 121.34 286.64L131.23 248.308L156.554 244.07L162.021 276.742C162.705 280.829 166.57 283.586 170.656 282.902C174.742 282.218 177.499 278.353 176.815 274.267L171.348 241.594L196.672 237.356L218.503 270.38C220.785 273.831 225.432 274.787 228.895 272.501C232.35 270.216 233.3 265.564 231.016 262.108C229.471 259.771 160.353 155.214 158.805 152.871C242.136 92.4979 217.069 111.574 247.266 86.6824C250.11 84.3388 251.385 79.8884 247.743 75.4709C259.709 61.0441 260.169 39.6548 247.817 24.6701ZM64.2274 189.286L51.1951 173.475L60.4543 165.842L73.4876 181.653L64.2274 189.286ZM135.331 232.414L147.021 187.103L154.078 229.276L135.331 232.414ZM168.872 226.801L161.815 184.627L187.62 223.664L168.872 226.801ZM93.1471 181.919L63.9457 146.493L170.065 47.2697L210.796 96.6788L93.1471 181.919ZM222.678 87.512C216.694 80.2531 187.336 44.6391 181.333 37.3561L190.593 29.723L231.938 79.879L222.678 87.512ZM237.923 63.5573L207.748 26.9526C230.146 17.8895 251.109 43.1847 237.923 63.5573Z" fill="#13829B"/>
</g>
<defs>
<clipPath id="clip0">
<rect width="264.186" height="264.186" fill="white" transform="translate(0 43.6033) rotate(-9.5)"/>
</clipPath>
</defs>
</svg>
