<svg width="150" height="150" viewBox="0 0 150 150" fill="none" xmlns="http://www.w3.org/2000/svg">
<path d="M92.2 69.8005L72.2188 56.4755C71.2766 55.8469 70.1814 55.4862 69.0501 55.4318C67.9188 55.3774 66.7941 55.6314 65.796 56.1667C64.7979 56.702 63.964 57.4985 63.3835 58.471C62.8029 59.4435 62.4976 60.5554 62.5 61.688V88.3318C62.4998 89.4633 62.8069 90.5736 63.3883 91.5443C63.9697 92.515 64.8038 93.3097 65.8015 93.8435C66.7992 94.3773 67.9231 94.6302 69.0532 94.5753C70.1834 94.5204 71.2775 94.1598 72.2188 93.5318L92.2 80.2068C93.056 79.636 93.7578 78.8627 94.2433 77.9556C94.7287 77.0485 94.9827 76.0356 94.9827 75.0068C94.9827 73.9779 94.7287 72.965 94.2433 72.0579C93.7578 71.1508 93.056 70.3775 92.2 69.8068V69.8005Z" fill="white" stroke="white" stroke-width="3" stroke-linecap="round" stroke-linejoin="round"/>
<path d="M131.25 75C131.25 82.3869 129.795 89.7014 126.968 96.5259C124.141 103.351 119.998 109.551 114.775 114.775C109.551 119.998 103.351 124.141 96.5259 126.968C89.7014 129.795 82.3869 131.25 75 131.25C67.6131 131.25 60.2986 129.795 53.4741 126.968C46.6495 124.141 40.4485 119.998 35.2252 114.775C30.0019 109.551 25.8586 103.351 23.0318 96.5259C20.2049 89.7014 18.75 82.3869 18.75 75C18.75 60.0816 24.6763 45.7742 35.2252 35.2252C45.7742 24.6763 60.0816 18.75 75 18.75C89.9184 18.75 104.226 24.6763 114.775 35.2252C125.324 45.7742 131.25 60.0816 131.25 75Z" stroke="white" stroke-width="3" stroke-linecap="round" stroke-linejoin="round"/>
</svg>
