<svg width="100" height="100" viewBox="0 0 100 100" fill="none" xmlns="http://www.w3.org/2000/svg">
<path d="M0 87.1059C0 94.2277 5.77305 100 12.8941 100H87.1055C94.2277 100 100 94.227 100 87.1059V12.8945C100 5.77226 94.227 0 87.1059 0H12.8945C5.77226 0 0 5.77305 0 12.8941V87.1055V87.1059Z" fill="#563D7C"/>
<path d="M41.468 44.2336V30.0723H53.9333C55.1208 30.0723 56.2653 30.1711 57.3676 30.3691C58.47 30.5668 59.4454 30.9199 60.2934 31.4289C61.1411 31.9379 61.8196 32.6445 62.3286 33.5488C62.8372 34.4535 63.0919 35.6125 63.0919 37.0254C63.0919 39.5695 62.3286 41.407 60.802 42.5375C59.2759 43.6684 57.3255 44.2336 54.9508 44.2336H41.468ZM28.1543 19.7266V80.2734H57.495C60.2087 80.2734 62.8516 79.9344 65.4239 79.2559C67.9962 78.5773 70.2856 77.5316 72.2927 76.1184C74.2993 74.7051 75.8966 72.8816 77.0837 70.6488C78.2712 68.4156 78.8646 65.7727 78.8646 62.7199C78.8646 58.932 77.9458 55.6957 76.1087 53.0105C74.2712 50.325 71.4868 48.4453 67.7556 47.3711C70.4692 46.0711 72.5189 44.4031 73.904 42.368C75.2888 40.3328 75.9814 37.7891 75.9814 34.7359C75.9814 31.9094 75.515 29.5352 74.5821 27.6129C73.6493 25.691 72.3349 24.1504 70.6388 22.9914C68.9431 21.8324 66.9079 20.9984 64.5333 20.4898C62.1591 19.9809 59.5302 19.7266 56.6469 19.7266H28.1543ZM41.468 69.9277V53.307H55.9684C58.8516 53.307 61.1696 53.9711 62.9223 55.3C64.6747 56.6285 65.5513 58.8473 65.5513 61.9566C65.5513 63.5398 65.2825 64.8398 64.7454 65.8574C64.2083 66.875 63.4876 67.6809 62.5829 68.2742C61.6786 68.868 60.6325 69.2918 59.4454 69.5465C58.2579 69.8004 57.0145 69.9277 55.7141 69.9277H41.468Z" fill="white"/>
</svg>
