<svg width="100" height="100" viewBox="0 0 100 100" fill="none" xmlns="http://www.w3.org/2000/svg">
<path d="M70.8333 25.25C67.9436 25.2519 65.1439 26.255 62.9104 28.0885C60.6769 29.922 59.1476 32.4728 58.5828 35.3067C58.0179 38.1407 58.4524 41.0828 59.8123 43.6325C61.1722 46.1822 63.3735 48.182 66.0417 49.2917C65.4074 50.8122 64.3365 52.1107 62.9645 53.0229C61.5925 53.9351 59.9809 54.4201 58.3333 54.4167H41.6667C38.7293 54.429 35.85 55.2352 33.3333 56.75V32.8333C36.1134 31.8504 38.4565 29.9164 39.9485 27.373C41.4405 24.8296 41.9853 21.8407 41.4867 18.9344C40.988 16.0282 39.478 13.3918 37.2236 11.4912C34.9691 9.59063 32.1154 8.54822 29.1667 8.54822C26.218 8.54822 23.3642 9.59063 21.1098 11.4912C18.8553 13.3918 17.3453 16.0282 16.8467 18.9344C16.3481 21.8407 16.8929 24.8296 18.3849 27.373C19.8769 29.9164 22.22 31.8504 25 32.8333V67.6667C22.2541 68.6542 19.9403 70.5712 18.4594 73.0856C16.9785 75.6 16.424 78.5532 16.8919 81.4335C17.3598 84.3138 18.8206 86.9396 21.0213 88.8559C23.2219 90.7722 26.0236 91.8583 28.9409 91.9258C31.8581 91.9933 34.7071 91.0381 36.994 89.2257C39.281 87.4132 40.8618 84.8578 41.4624 82.0022C42.0631 79.1467 41.6458 76.171 40.2829 73.5908C38.92 71.0106 36.6973 68.9885 34 67.875C34.6316 66.361 35.696 65.067 37.0598 64.1553C38.4236 63.2437 40.0262 62.7548 41.6667 62.75H58.3333C62.1451 62.7492 65.8415 61.4419 68.8061 59.0459C71.7708 56.6499 73.8245 53.3101 74.625 49.5833C77.4107 48.6368 79.7733 46.738 81.2969 44.221C82.8205 41.7041 83.4075 38.7304 82.9545 35.8233C82.5015 32.9163 81.0376 30.2621 78.8205 28.3281C76.6033 26.3941 73.775 25.3041 70.8333 25.25ZM29.1667 16.9167C29.9908 16.9167 30.7964 17.161 31.4816 17.6189C32.1668 18.0767 32.7008 18.7275 33.0162 19.4888C33.3315 20.2502 33.4141 21.088 33.2533 21.8962C33.0925 22.7045 32.6957 23.4469 32.113 24.0296C31.5302 24.6123 30.7878 25.0092 29.9796 25.1699C29.1713 25.3307 28.3335 25.2482 27.5722 24.9328C26.8108 24.6175 26.1601 24.0834 25.7022 23.3982C25.2444 22.713 25 21.9074 25 21.0833C25 19.9783 25.439 18.9185 26.2204 18.1371C27.0018 17.3557 28.0616 16.9167 29.1667 16.9167ZM29.1667 83.5833C28.3426 83.5833 27.537 83.339 26.8518 82.8811C26.1666 82.4233 25.6325 81.7725 25.3172 81.0112C25.0018 80.2498 24.9193 79.412 25.0801 78.6038C25.2408 77.7955 25.6377 77.0531 26.2204 76.4704C26.8031 75.8877 27.5456 75.4908 28.3538 75.3301C29.1621 75.1693 29.9998 75.2518 30.7612 75.5672C31.5226 75.8825 32.1733 76.4166 32.6311 77.1018C33.089 77.787 33.3333 78.5926 33.3333 79.4167C33.3333 80.5217 32.8944 81.5816 32.113 82.3629C31.3316 83.1443 30.2717 83.5833 29.1667 83.5833ZM70.8333 41.9167C70.0093 41.9167 69.2037 41.6723 68.5185 41.2145C67.8333 40.7566 67.2992 40.1059 66.9838 39.3445C66.6685 38.5832 66.586 37.7454 66.7467 36.9371C66.9075 36.1289 67.3043 35.3864 67.8871 34.8037C68.4698 34.221 69.2122 33.8242 70.0205 33.6634C70.8287 33.5026 71.6665 33.5851 72.4279 33.9005C73.1892 34.2159 73.84 34.7499 74.2978 35.4351C74.7556 36.1203 75 36.9259 75 37.75C75 38.8551 74.561 39.9149 73.7796 40.6963C72.9982 41.4777 71.9384 41.9167 70.8333 41.9167Z" fill="black"/>
</svg>
