<svg width="100" height="100" viewBox="0 0 100 100" fill="none" xmlns="http://www.w3.org/2000/svg">
<mask id="mask0" mask-type="alpha" maskUnits="userSpaceOnUse" x="0" y="0" width="100" height="100">
<path d="M0.0937486 100V0.0625H100V100H0.0937486Z" fill="white"/>
</mask>
<g mask="url(#mask0)">
<path fill-rule="evenodd" clip-rule="evenodd" d="M100 50C100 77.6141 77.6141 100 50 100C22.3859 100 0 77.6141 0 50C0 22.3859 22.3859 0 50 0C77.6141 0 100 22.3859 100 50Z" fill="#73BBA3"/>
</g>
<path fill-rule="evenodd" clip-rule="evenodd" d="M66.3453 68.75C65.6641 68.752 65.0008 68.5312 64.4567 68.1213C63.9126 67.7113 63.5174 67.1347 63.3314 66.4794C63.1454 65.824 63.1788 65.1258 63.4264 64.4912C63.6741 63.8565 64.1224 63.3202 64.7031 62.964L80.5219 53.2125L80.5328 53.125L80.5219 53.0375L64.7031 43.2859C64.0189 42.8411 63.5357 42.1463 63.3568 41.35C63.1779 40.5538 63.3174 39.7191 63.7456 39.0243C64.1738 38.3295 64.8567 37.8297 65.6484 37.6316C66.4401 37.4335 67.2779 37.5528 67.9828 37.9641L84.5922 48.2062L84.85 48.464C85.4647 49.0743 85.9522 49.8005 86.2839 50.6006C86.6157 51.4007 86.7853 52.2588 86.7828 53.125C86.7852 53.991 86.6157 54.8489 86.2842 55.649C85.9527 56.449 85.4657 57.1754 84.8516 57.7859L84.5922 58.0437L67.9828 68.2859C67.4719 68.6 66.9047 68.75 66.3453 68.75Z" fill="#629986"/>
<path fill-rule="evenodd" clip-rule="evenodd" d="M33.6547 68.75C33.0953 68.75 32.5281 68.6 32.0172 68.2859L15.4078 58.0437L15.1484 57.7859C14.5343 57.1754 14.0473 56.449 13.7158 55.649C13.3843 54.8489 13.2148 53.991 13.2172 53.125C13.2172 51.364 13.9031 49.7078 15.15 48.464L15.4078 48.2062L32.0172 37.9641C32.7229 37.5291 33.5725 37.3924 34.3791 37.5839C35.1856 37.7754 35.8831 38.2794 36.318 38.9851C36.7529 39.6909 36.8896 40.5405 36.6981 41.347C36.5066 42.1536 36.0026 42.851 35.2969 43.2859L19.4781 53.0375L19.4672 53.125L19.4781 53.2125L35.2969 62.964C35.8753 63.3217 36.3214 63.8581 36.5674 64.492C36.8135 65.126 36.8462 65.8229 36.6605 66.4771C36.4748 67.1313 36.0809 67.7071 35.5385 68.1173C34.9961 68.5274 34.3347 68.7496 33.6547 68.75Z" fill="#629986"/>
<path fill-rule="evenodd" clip-rule="evenodd" d="M39.8438 82.8125C39.3372 82.8124 38.8382 82.6892 38.3898 82.4535C37.9414 82.2178 37.5571 81.8765 37.2699 81.4593C36.9827 81.042 36.8012 80.5611 36.7411 80.0581C36.6811 79.5551 36.7442 79.0451 36.925 78.5719L57.2375 25.4469C57.3799 25.0581 57.5982 24.7015 57.8796 24.3977C58.161 24.094 58.5 23.8493 58.8768 23.6777C59.2536 23.5061 59.6608 23.4111 60.0747 23.3982C60.4885 23.3854 60.9008 23.4549 61.2876 23.6027C61.6743 23.7505 62.0279 23.9737 62.3276 24.2594C62.6274 24.545 62.8674 24.8874 63.0337 25.2666C63.2 25.6457 63.2893 26.0542 63.2964 26.4682C63.3035 26.8822 63.2282 27.2935 63.075 27.6781L42.7625 80.8031C42.5366 81.3942 42.1366 81.9027 41.6155 82.2615C41.0943 82.6203 40.4765 82.8124 39.8438 82.8125Z" fill="#629986"/>
<path fill-rule="evenodd" clip-rule="evenodd" d="M66.3453 65.625C65.6645 65.6264 65.0019 65.4054 64.4584 64.9955C63.9148 64.5857 63.52 64.0095 63.334 63.3546C63.1481 62.6997 63.1812 62.002 63.4284 61.3676C63.6755 60.7333 64.1232 60.1971 64.7031 59.8406L80.5203 50.089V49.9109L64.7031 40.1593C64.3447 39.9485 64.0319 39.6682 63.7831 39.335C63.5343 39.0017 63.3546 38.6221 63.2544 38.2185C63.1542 37.8149 63.1356 37.3953 63.1997 36.9844C63.2637 36.5735 63.4092 36.1795 63.6274 35.8255C63.8457 35.4715 64.1325 35.1647 64.4709 34.9229C64.8093 34.6812 65.1925 34.5094 65.5981 34.4177C66.0038 34.3259 66.4236 34.3161 66.8331 34.3887C67.2426 34.4613 67.6335 34.615 67.9828 34.8406L84.5937 45.0812L84.8516 45.339C86.0853 46.5765 86.7781 48.2526 86.7781 50C86.7781 51.7473 86.0853 53.4234 84.8516 54.6609L84.5937 54.9187L67.9828 65.1593C67.4719 65.475 66.9047 65.625 66.3453 65.625Z" fill="#FFFFFE"/>
<path fill-rule="evenodd" clip-rule="evenodd" d="M33.6547 65.625C33.0953 65.625 32.5281 65.475 32.0172 65.1594L15.4062 54.9187L15.1484 54.6609C13.9147 53.4235 13.2219 51.7474 13.2219 50C13.2219 48.2526 13.9147 46.5765 15.1484 45.3391L15.4062 45.0812L32.0172 34.8406C32.7225 34.4057 33.5717 34.2688 34.3779 34.46C35.1842 34.6512 35.8815 35.1548 36.3164 35.8602C36.7513 36.5655 36.8882 37.4147 36.697 38.2209C36.5058 39.0272 36.0022 39.7245 35.2969 40.1594L19.4797 49.9109V50.0891L35.2969 59.8406C35.8757 60.1978 36.3222 60.7341 36.5685 61.3681C36.8149 62.0021 36.8477 62.6992 36.6619 63.3535C36.4762 64.0078 36.082 64.5836 35.5393 64.9936C34.9965 65.4035 34.3349 65.6252 33.6547 65.625Z" fill="#FFFFFE"/>
<path fill-rule="evenodd" clip-rule="evenodd" d="M39.8438 79.6891C39.337 79.6891 38.8378 79.5659 38.3893 79.3301C37.9407 79.0943 37.5562 78.7529 37.269 78.3354C36.9817 77.9179 36.8003 77.4368 36.7404 76.9336C36.6805 76.4304 36.7438 75.9201 36.925 75.4469L57.2375 22.3219C57.3799 21.9331 57.5982 21.5765 57.8796 21.2727C58.161 20.969 58.5 20.7243 58.8768 20.5527C59.2536 20.3811 59.6608 20.2861 60.0747 20.2732C60.4885 20.2604 60.9008 20.3299 61.2876 20.4777C61.6743 20.6255 62.0279 20.8487 62.3276 21.1344C62.6274 21.42 62.8674 21.7624 63.0337 22.1416C63.2 22.5207 63.2893 22.9292 63.2964 23.3432C63.3035 23.7572 63.2282 24.1685 63.075 24.5531L42.7625 77.6781C42.5369 78.2695 42.137 78.7783 41.6158 79.1374C41.0946 79.4965 40.4767 79.6889 39.8438 79.6891Z" fill="#FFFFFE"/>
</svg>
