<svg width="100" height="100" viewBox="0 0 100 100" fill="none" xmlns="http://www.w3.org/2000/svg">
<path d="M32.4219 59.0625H29.2969C26.7125 59.0625 24.6094 56.9594 24.6094 54.375V45C24.6094 42.4156 26.7125 40.3125 29.2969 40.3125H32.4219C35.0063 40.3125 37.1094 42.4156 37.1094 45V54.375C37.1094 56.9594 35.0063 59.0625 32.4219 59.0625ZM29.2969 43.4375C28.4359 43.4375 27.7344 44.1375 27.7344 45V54.375C27.7344 55.2375 28.4359 55.9375 29.2969 55.9375H32.4219C33.2828 55.9375 33.9844 55.2375 33.9844 54.375V45C33.9844 44.1375 33.2828 43.4375 32.4219 43.4375H29.2969ZM51.1719 59.0625H48.0469C45.4625 59.0625 43.3594 56.9594 43.3594 54.375V45C43.3594 42.4156 45.4625 40.3125 48.0469 40.3125H51.1719C53.7563 40.3125 55.8594 42.4156 55.8594 45V54.375C55.8594 56.9594 53.7563 59.0625 51.1719 59.0625ZM48.0469 43.4375C47.1859 43.4375 46.4844 44.1375 46.4844 45V54.375C46.4844 55.2375 47.1859 55.9375 48.0469 55.9375H51.1719C51.5863 55.9375 51.9837 55.7729 52.2767 55.4799C52.5698 55.1868 52.7344 54.7894 52.7344 54.375V45C52.7344 44.5856 52.5698 44.1882 52.2767 43.8951C51.9837 43.6021 51.5863 43.4375 51.1719 43.4375H48.0469ZM69.9219 59.0625H66.7969C64.2125 59.0625 62.1094 56.9594 62.1094 54.375V45C62.1094 42.4156 64.2125 40.3125 66.7969 40.3125H69.9219C72.5062 40.3125 74.6094 42.4156 74.6094 45V54.375C74.6094 56.9594 72.5062 59.0625 69.9219 59.0625ZM66.7969 43.4375C66.3825 43.4375 65.985 43.6021 65.692 43.8951C65.399 44.1882 65.2344 44.5856 65.2344 45V54.375C65.2344 54.7894 65.399 55.1868 65.692 55.4799C65.985 55.7729 66.3825 55.9375 66.7969 55.9375H69.9219C70.3363 55.9375 70.7337 55.7729 71.0267 55.4799C71.3198 55.1868 71.4844 54.7894 71.4844 54.375V45C71.4844 44.5856 71.3198 44.1882 71.0267 43.8951C70.7337 43.6021 70.3363 43.4375 69.9219 43.4375H66.7969Z" fill="#F15743"/>
<path d="M41.7969 83.2812H38.6719C37.6363 83.28 36.6434 82.8681 35.9111 82.1358C35.1788 81.4035 34.7669 80.4106 34.7656 79.375V70C34.7656 67.8453 36.5187 66.0938 38.6719 66.0938H41.7969C43.95 66.0938 45.7031 67.8453 45.7031 70V79.375C45.7031 81.5297 43.95 83.2812 41.7969 83.2812ZM38.6719 67.6562C37.3797 67.6562 36.3281 68.7078 36.3281 70V79.375C36.3281 80.6672 37.3797 81.7188 38.6719 81.7188H41.7969C43.0891 81.7188 44.1406 80.6672 44.1406 79.375V70C44.1406 68.7078 43.0891 67.6562 41.7969 67.6562H38.6719ZM88.6719 83.2812H85.5469C84.5111 83.2804 83.518 82.8686 82.7857 82.1362C82.0533 81.4038 81.6414 80.4108 81.6406 79.375V70C81.6406 67.8453 83.3922 66.0938 85.5469 66.0938H88.6719C90.8266 66.0938 92.5781 67.8453 92.5781 70V79.375C92.5781 81.5297 90.8266 83.2812 88.6719 83.2812ZM85.5469 67.6562C84.2547 67.6562 83.2031 68.7078 83.2031 70V79.375C83.2031 80.6672 84.2547 81.7188 85.5469 81.7188H88.6719C89.9641 81.7188 91.0156 80.6672 91.0156 79.375V70C91.0156 68.7078 89.9641 67.6562 88.6719 67.6562H85.5469ZM69.9219 83.2812H66.7969C65.7611 83.2804 64.768 82.8686 64.0357 82.1362C63.3033 81.4038 62.8915 80.4108 62.8906 79.375V70C62.8906 67.8453 64.6422 66.0938 66.7969 66.0938H69.9219C72.0766 66.0938 73.8281 67.8453 73.8281 70V79.375C73.8281 81.5297 72.0766 83.2812 69.9219 83.2812ZM66.7969 67.6562C65.5047 67.6562 64.4531 68.7078 64.4531 70V79.375C64.4531 80.6672 65.5047 81.7188 66.7969 81.7188H69.9219C71.2141 81.7188 72.2656 80.6672 72.2656 79.375V70C72.2656 68.7078 71.2141 67.6562 69.9219 67.6562H66.7969ZM16.7969 58.2812C16.5897 58.2812 16.391 58.1989 16.2444 58.0524C16.0979 57.9059 16.0156 57.7072 16.0156 57.5V41.875C16.0156 41.6678 16.0979 41.4691 16.2444 41.3226C16.391 41.1761 16.5897 41.0937 16.7969 41.0937C17.0041 41.0937 17.2028 41.1761 17.3493 41.3226C17.4958 41.4691 17.5781 41.6678 17.5781 41.875V57.5C17.5781 57.7072 17.4958 57.9059 17.3493 58.0524C17.2028 58.1989 17.0041 58.2812 16.7969 58.2812ZM7.42188 58.2812C7.21467 58.2812 7.01596 58.1989 6.86945 58.0524C6.72294 57.9059 6.64062 57.7072 6.64062 57.5V41.875C6.64062 41.6678 6.72294 41.4691 6.86945 41.3226C7.01596 41.1761 7.21467 41.0937 7.42188 41.0937C7.62908 41.0937 7.82779 41.1761 7.9743 41.3226C8.12081 41.4691 8.20312 41.6678 8.20312 41.875V57.5C8.20312 57.7072 8.12081 57.9059 7.9743 58.0524C7.82779 58.1989 7.62908 58.2812 7.42188 58.2812ZM91.7969 58.2812C91.5897 58.2812 91.391 58.1989 91.2444 58.0524C91.0979 57.9059 91.0156 57.7072 91.0156 57.5V41.875C91.0156 41.6678 91.0979 41.4691 91.2444 41.3226C91.391 41.1761 91.5897 41.0937 91.7969 41.0937C92.0041 41.0937 92.2028 41.1761 92.3493 41.3226C92.4958 41.4691 92.5781 41.6678 92.5781 41.875V57.5C92.5781 57.7072 92.4958 57.9059 92.3493 58.0524C92.2028 58.1989 92.0041 58.2812 91.7969 58.2812ZM82.4219 58.2812C82.2147 58.2812 82.016 58.1989 81.8694 58.0524C81.7229 57.9059 81.6406 57.7072 81.6406 57.5V41.875C81.6406 41.6678 81.7229 41.4691 81.8694 41.3226C82.016 41.1761 82.2147 41.0937 82.4219 41.0937C82.6291 41.0937 82.8278 41.1761 82.9743 41.3226C83.1208 41.4691 83.2031 41.6678 83.2031 41.875V57.5C83.2031 57.7072 83.1208 57.9059 82.9743 58.0524C82.8278 58.1989 82.6291 58.2812 82.4219 58.2812ZM13.6719 33.2828H10.5469C9.51125 33.2816 8.5184 32.8696 7.78611 32.1373C7.05381 31.405 6.64187 30.4122 6.64062 29.3766V20.0016C6.64062 17.8469 8.39375 16.0953 10.5469 16.0953H13.675C14.7172 16.0953 15.6953 16.5016 16.4328 17.2375C17.1703 17.975 17.5766 18.9562 17.5766 20V29.375C17.5757 30.4106 17.1642 31.4036 16.4322 32.1362C15.7002 32.8688 14.7075 33.2812 13.6719 33.2828ZM10.5469 17.6578C9.25469 17.6578 8.20312 18.7094 8.20312 20.0016V29.3766C8.20312 30.6688 9.25469 31.7203 10.5469 31.7203H13.6719C14.2934 31.7191 14.889 31.4715 15.3283 31.0319C15.7677 30.5923 16.0148 29.9965 16.0156 29.375V20C16.0167 19.6923 15.9568 19.3874 15.8396 19.1028C15.7223 18.8183 15.55 18.5598 15.3325 18.3421C15.1149 18.1244 14.8565 17.9519 14.5721 17.8345C14.2876 17.717 13.9827 17.657 13.675 17.6578H10.5469ZM60.5469 33.2828H57.4219C56.3861 33.282 55.393 32.8702 54.6607 32.1378C53.9283 31.4054 53.5165 30.4123 53.5156 29.3766V20.0016C53.5156 17.8469 55.2672 16.0953 57.4219 16.0953H60.5469C62.7016 16.0953 64.4531 17.8469 64.4531 20V29.375C64.4523 30.4109 64.0405 31.4041 63.3082 32.1368C62.5759 32.8694 61.5828 33.2816 60.5469 33.2828ZM57.4219 17.6578C56.1297 17.6578 55.0781 18.7094 55.0781 20.0016V29.3766C55.0781 30.6688 56.1297 31.7203 57.4219 31.7203H60.5469C61.8391 31.7203 62.8906 30.6672 62.8906 29.375V20C62.8906 18.7094 61.8391 17.6578 60.5469 17.6578H57.4219ZM35.5469 33.2812C35.3397 33.2812 35.141 33.1989 34.9944 33.0524C34.8479 32.9059 34.7656 32.7072 34.7656 32.5V16.875C34.7656 16.6678 34.8479 16.4691 34.9944 16.3226C35.141 16.1761 35.3397 16.0938 35.5469 16.0938C35.7541 16.0938 35.9528 16.1761 36.0993 16.3226C36.2458 16.4691 36.3281 16.6678 36.3281 16.875V32.5C36.3281 32.7072 36.2458 32.9059 36.0993 33.0524C35.9528 33.1989 35.7541 33.2812 35.5469 33.2812ZM26.1719 33.2812C25.9647 33.2812 25.766 33.1989 25.6194 33.0524C25.4729 32.9059 25.3906 32.7072 25.3906 32.5V16.875C25.3906 16.6678 25.4729 16.4691 25.6194 16.3226C25.766 16.1761 25.9647 16.0938 26.1719 16.0938C26.3791 16.0938 26.5778 16.1761 26.7243 16.3226C26.8708 16.4691 26.9531 16.6678 26.9531 16.875V32.5C26.9531 32.7072 26.8708 32.9059 26.7243 33.0524C26.5778 33.1989 26.3791 33.2812 26.1719 33.2812ZM91.7969 33.2812C91.5897 33.2812 91.391 33.1989 91.2444 33.0524C91.0979 32.9059 91.0156 32.7072 91.0156 32.5V16.875C91.0156 16.6678 91.0979 16.4691 91.2444 16.3226C91.391 16.1761 91.5897 16.0938 91.7969 16.0938C92.0041 16.0938 92.2028 16.1761 92.3493 16.3226C92.4958 16.4691 92.5781 16.6678 92.5781 16.875V32.5C92.5781 32.7072 92.4958 32.9059 92.3493 33.0524C92.2028 33.1989 92.0041 33.2812 91.7969 33.2812ZM82.4219 33.2812C82.2147 33.2812 82.016 33.1989 81.8694 33.0524C81.7229 32.9059 81.6406 32.7072 81.6406 32.5V16.875C81.6406 16.6678 81.7229 16.4691 81.8694 16.3226C82.016 16.1761 82.2147 16.0938 82.4219 16.0938C82.6291 16.0938 82.8278 16.1761 82.9743 16.3226C83.1208 16.4691 83.2031 16.6678 83.2031 16.875V32.5C83.2031 32.7072 83.1208 32.9059 82.9743 33.0524C82.8278 33.1989 82.6291 33.2812 82.4219 33.2812ZM73.0469 33.2812C72.8397 33.2812 72.641 33.1989 72.4944 33.0524C72.3479 32.9059 72.2656 32.7072 72.2656 32.5V16.875C72.2656 16.6678 72.3479 16.4691 72.4944 16.3226C72.641 16.1761 72.8397 16.0938 73.0469 16.0938C73.2541 16.0938 73.4528 16.1761 73.5993 16.3226C73.7458 16.4691 73.8281 16.6678 73.8281 16.875V32.5C73.8281 32.7072 73.7458 32.9059 73.5993 33.0524C73.4528 33.1989 73.2541 33.2812 73.0469 33.2812ZM44.9219 33.2812C44.7147 33.2812 44.516 33.1989 44.3694 33.0524C44.2229 32.9059 44.1406 32.7072 44.1406 32.5V16.875C44.1406 16.6678 44.2229 16.4691 44.3694 16.3226C44.516 16.1761 44.7147 16.0938 44.9219 16.0938C45.1291 16.0938 45.3278 16.1761 45.4743 16.3226C45.6208 16.4691 45.7031 16.6678 45.7031 16.875V32.5C45.7031 32.7072 45.6208 32.9059 45.4743 33.0524C45.3278 33.1989 45.1291 33.2812 44.9219 33.2812ZM13.6719 83.2828H10.5469C9.51125 83.2816 8.5184 82.8696 7.78611 82.1373C7.05381 81.405 6.64187 80.4122 6.64062 79.3766V70.0016C6.64062 67.8469 8.39375 66.0953 10.5469 66.0953H13.6719C15.825 66.0953 17.5781 67.8469 17.5781 70.0016V79.3766C17.5781 81.5312 15.825 83.2828 13.6719 83.2828ZM10.5469 67.6578C9.25469 67.6578 8.20312 68.7094 8.20312 70.0016V79.3766C8.20312 80.6687 9.25469 81.7203 10.5469 81.7203H13.6719C14.9641 81.7203 16.0156 80.6687 16.0156 79.3766V70.0016C16.0156 68.7094 14.9641 67.6578 13.6719 67.6578H10.5469ZM26.1719 83.2812C25.9647 83.2812 25.766 83.1989 25.6194 83.0524C25.4729 82.9059 25.3906 82.7072 25.3906 82.5V66.875C25.3906 66.6678 25.4729 66.4691 25.6194 66.3226C25.766 66.1761 25.9647 66.0938 26.1719 66.0938C26.3791 66.0938 26.5778 66.1761 26.7243 66.3226C26.8708 66.4691 26.9531 66.6678 26.9531 66.875V82.5C26.9531 82.7072 26.8708 82.9059 26.7243 83.0524C26.5778 83.1989 26.3791 83.2812 26.1719 83.2812ZM54.2969 83.2812C54.0897 83.2812 53.891 83.1989 53.7444 83.0524C53.5979 82.9059 53.5156 82.7072 53.5156 82.5V66.875C53.5156 66.6678 53.5979 66.4691 53.7444 66.3226C53.891 66.1761 54.0897 66.0938 54.2969 66.0938C54.5041 66.0938 54.7028 66.1761 54.8493 66.3226C54.9958 66.4691 55.0781 66.6678 55.0781 66.875V82.5C55.0781 82.7072 54.9958 82.9059 54.8493 83.0524C54.7028 83.1989 54.5041 83.2812 54.2969 83.2812Z" fill="#2C4355"/>
</svg>
