<svg width="120" height="120" viewBox="0 0 120 120" fill="none" xmlns="http://www.w3.org/2000/svg">
<path d="M80.625 111C80.625 110.719 80.7188 110.438 80.625 110.156C80.4375 109.875 80.3438 109.688 80.1562 109.5C79.6875 108.938 79.2188 108.469 78.6562 107.906L73.125 102.281L77.4375 97.875L79.7812 95.3438C80.1562 94.9688 80.625 94.2188 80.625 93.6562V93.2812C80.625 92.4375 80.25 91.9688 79.4062 91.7812L79.5938 91.875H78.9375C78.375 91.875 76.7812 93.375 76.4062 93.8438C75 95.25 74.0625 96.5625 72.1875 97.9688V86.8125C72.1875 85.7812 71.625 85.3125 70.5938 85.3125H70.3125C69.2812 85.3125 68.4375 85.7812 68.4375 86.8125V111.094C68.4375 112.125 69.2812 112.5 70.3125 112.5H70.5938C71.625 112.5 72.1875 112.031 72.1875 111.094V106.781L75 109.5C75.8438 110.344 76.6875 110.906 77.4375 111.656C77.8125 112.031 78.5625 112.5 79.125 112.5H79.4062C80.3438 112.5 80.625 112.031 80.8125 111.281L80.625 111.375V111ZM117.281 91.875H116.906C114.844 91.875 112.969 92.4375 111.281 93.6562C108.469 95.7188 106.875 98.4375 106.875 102V111.188C106.875 112.219 107.25 112.5 108.281 112.5H108.562C109.594 112.5 110.625 112.125 110.625 111.188V102.562C110.625 100.688 111 98.9062 112.406 97.5C113.531 96.375 114.938 95.4375 116.531 95.4375C117.75 95.4375 119.156 95.1562 119.156 93.6562C119.156 92.5312 118.312 91.875 117.281 91.875ZM102.844 96.5625C101.812 94.875 100.406 93.5625 98.625 92.7188C95.3438 91.125 91.875 90.9375 88.6875 92.8125L88.2188 93.0938C86.9062 93.8438 85.7812 94.7812 84.9375 96C82.5 99.5625 82.2188 103.594 84.375 107.344L84.5625 107.719C85.5 109.312 86.7188 110.625 88.3125 111.469C91.6875 113.344 95.3438 113.531 98.7188 111.656L99 111.469C99.9375 110.906 100.125 109.969 99.6562 109.031C99.4688 108.656 99.0938 108.375 98.7188 108.188H98.5312C97.875 108.094 96.0938 108.844 95.4375 109.125C94.125 109.312 92.625 109.406 91.3125 108.938L98.4375 102.75C99.4688 101.812 100.594 100.781 101.719 99.9375C102.656 99.1875 103.594 98.1562 102.844 96.8438V96.5625ZM96.375 99.9375L88.4062 106.781C88.125 106.5 87.9375 106.125 87.75 105.844C87.1875 104.906 86.8125 103.781 86.8125 102.656C86.7188 99.8438 87.75 97.5 90.2812 96.0938C92.1562 94.9688 94.2188 94.7812 96.2812 95.5312C97.3125 95.9062 98.5312 96.5625 99.1875 97.5C98.25 98.3438 97.2188 99.0938 96.375 99.9375ZM20.625 85.3125H20.3438C19.3125 85.3125 18.75 85.6875 18.75 86.7188V94.3125C16.875 92.625 14.625 91.9688 12 91.9688H11.25C9.46875 91.9688 7.78125 92.25 6.1875 93.1875C2.8125 95.1562 0.9375 98.0625 0.9375 102V102.75C0.9375 104.531 1.40625 106.031 2.34375 107.625C4.3125 111 7.40625 112.688 11.25 112.688H12C13.7812 112.688 15.6562 112.406 17.1562 111.562C20.5312 109.594 22.5 106.688 22.5 102.844V86.9062C22.5 85.6875 21.6562 85.3125 20.625 85.3125ZM17.7188 105.75C16.3125 108.094 14.25 109.406 11.5312 109.406C10.4062 109.406 9.28125 109.125 8.34375 108.562C5.90625 107.25 4.5 105.094 4.5 102.281C4.5 101.25 4.6875 100.312 5.15625 99.375C6.46875 96.6562 8.625 95.1562 11.625 95.1562C13.125 95.1562 14.4375 95.625 15.5625 96.4688C17.5312 97.875 18.6562 99.75 18.6562 102.188C18.75 103.5 18.375 104.625 17.7188 105.75ZM35.25 91.875H34.6875C32.9062 91.875 31.125 92.1562 29.625 93.0938C26.25 95.0625 24.375 97.9688 24.375 101.906V102.656C24.375 104.438 24.8438 105.938 25.7812 107.531C27.75 110.906 30.8437 112.594 34.7812 112.594H35.5312C37.3125 112.594 39.0938 112.312 40.6875 111.469C44.0625 109.5 46.0312 106.594 46.0312 102.75V102C46.0312 100.312 45.4688 98.9062 44.7188 97.5C42.6562 93.75 39.375 91.875 35.25 91.875ZM41.25 105.75C39.8438 108 37.875 109.406 35.1562 109.406C33.9375 109.406 32.7188 109.125 31.5938 108.469C29.25 107.062 27.9375 105.094 27.9375 102.375C27.9375 101.344 28.125 100.406 28.5938 99.4688C29.9062 96.75 32.0625 95.25 35.0625 95.25C36.4688 95.25 37.6875 95.625 38.8125 96.375C40.875 97.7812 42.0938 99.75 42.0938 102.281C42.1875 103.406 41.9062 104.625 41.25 105.75ZM64.2188 93.1875L64.125 93.2812C62.5312 92.25 60.75 91.875 58.875 91.875H58.125C56.3438 91.875 54.5625 92.1562 53.0625 93.0938C49.6875 95.0625 47.8125 97.9688 47.8125 101.812V102.562C47.8125 103.5 48 104.344 48.1875 105.281C49.6875 110.438 53.7188 113.344 59.1562 112.969C60.6562 112.875 64.6875 112.406 64.6875 110.156V109.781C64.6875 108.938 64.0312 108.188 63.2812 108L63.1875 107.812H62.5312L62.3438 108.094C61.5 108.469 60.0938 109.219 59.1562 109.219C58.0312 109.219 56.8125 109.219 55.7812 108.656C53.0625 107.344 51.4688 105.188 51.4688 102.188C51.4688 101.156 51.6562 100.219 52.125 99.2812C53.4375 96.6562 55.5938 94.9688 58.5938 95.0625C59.1562 95.0625 60.1875 95.3438 60.75 95.625C61.2188 95.8125 62.4375 96.5625 63 96.5625H63.1875L63.2812 96.375C64.125 96.1875 64.7812 95.5312 64.7812 94.6875V94.3125C64.7812 93.9375 64.5937 93.6562 64.4062 93.375L64.2188 93.1875ZM5.4375 63.9375L5.53125 64.125C12.9375 76.6875 25.875 81.9375 40.0312 81.9375C67.4062 81.9375 90 69.6562 100.312 43.875C107.25 44.25 114.375 42.1875 117.75 35.5313L118.594 33.8437L116.906 32.9062C112.875 30.5625 107.531 30.2812 103.031 31.5938C102.469 26.7188 99.2812 22.5 95.5312 19.5L94.0312 18.2812L92.8125 19.7812C90.2812 22.6875 89.5312 27.5625 89.9062 31.3125C90.1875 34.0313 91.0312 36.8438 92.7188 39.0938C91.4062 39.8438 90 40.875 88.6875 41.3438C86.0625 42.2812 83.1562 43.2188 80.3438 43.2188H74.0625V30H61.875V6.5625H47.8125V17.8125H24.375V30H12.1875V43.125H1.6875L1.5 44.5312C1.03125 50.5312 1.78125 56.3438 4.3125 61.875L5.4375 63.9375ZM61.875 32.8125H72.1875V43.125H61.875V32.8125ZM49.6875 8.4375H60V18.75H49.6875V8.4375ZM49.6875 20.625H60V30.9375H49.6875V20.625ZM49.6875 32.8125H60V43.125H49.6875V32.8125ZM37.5 20.625H47.8125V30.9375H37.5V20.625ZM37.5 32.8125H47.8125V43.125H37.5V32.8125ZM38.5312 62.0625C38.5312 63.6562 37.2188 64.9688 35.625 64.9688C34.0312 64.9688 32.7188 63.6562 32.7188 62.0625C32.7188 60.4687 34.0312 59.1562 35.625 59.1562C37.2188 59.25 38.5312 60.4687 38.5312 62.0625ZM26.25 20.625H35.625V30.9375H26.25V20.625ZM26.25 32.8125H35.625V43.125H26.25V32.8125ZM14.0625 32.8125H24.375V43.125H14.0625V32.8125ZM16.3125 68.4375C17.8125 68.4375 19.3125 68.4375 20.7188 68.3438C24.375 68.1562 27.5625 67.6875 30.1875 66.9375C32.3438 71.9062 36.2812 76.5 43.3125 79.875L40.0312 79.9688C25.2188 79.875 17.25 74.9062 10.6875 68.3438C12.6562 68.4375 14.5312 68.4375 16.3125 68.4375ZM35.625 64.125C36.75 64.125 37.6875 63.1875 37.6875 62.0625C37.6875 61.7812 37.5938 61.5 37.5 61.3125C37.3125 61.5938 37.125 61.7812 36.75 61.7812C36.2812 61.7812 35.9062 61.4062 35.9062 60.9375C35.9062 60.6562 36.0938 60.375 36.2812 60.1875C36.1875 60.0937 35.9062 60 35.625 60C34.5 60 33.5625 60.9375 33.5625 62.0625C33.6562 63.1875 34.5 64.125 35.625 64.125Z" fill="#019BC6"/>
</svg>
