<svg width="130" height="120" viewBox="0 0 130 120" fill="none" xmlns="http://www.w3.org/2000/svg">
<path d="M77.8544 29.3137C69.9895 29.3137 66.0812 38.4566 66.0812 51.6217C66.0812 60.0964 67.9839 66.1001 70.5032 68.8479C69.2692 71.367 68.2418 73.5704 67.3161 75.7439C66.3894 77.9221 65.8243 80.2215 65.8243 82.7429C65.8243 85.8363 66.3894 88.7031 68.0867 90.3001C66.2877 94.0845 65.2582 96.8301 65.2582 101.985C65.2582 111.029 68.8059 116.299 78.1122 116.299C87.059 116.299 92.2506 108.86 92.2506 95.6907C92.2506 80.4687 87.0076 79.8944 78.1122 78.6314L73.0738 77.945L74.7711 71.8773C75.6947 72.4492 77.1876 72.9068 78.8345 72.9068C85.3114 72.9068 89.7848 65.4663 89.7848 52.7542C89.7848 47.4873 88.6166 43.8242 87.6919 41.1884L92.2341 40.3876V30.2564H82.5856C81.4041 30.2564 80.0654 29.3137 77.8544 29.3137ZM80.1681 94.5467C82.638 94.8899 84.5922 95.1187 84.5922 98.7886C84.5922 104.964 80.5287 105.428 77.5482 105.428C73.9481 105.428 71.3261 104.051 71.3261 99.4727C71.3261 97.1801 71.994 95.2353 72.6638 93.405L80.1681 94.5467ZM78.1657 60.8857C74.7711 60.8857 73.383 56.9893 73.383 51.3814C73.383 43.9386 75.4903 40.8452 78.3187 40.8452C81.249 40.8452 82.9976 44.3962 82.9976 51.1503C82.9976 57.1083 81.0435 60.8857 78.1657 60.8857ZM101.659 20.3837C104.64 20.3837 106.338 16.604 106.338 10.074C106.338 3.55325 104.64 0 101.659 0C98.7274 0 97.0301 3.55325 97.0301 10.074C97.0301 16.6017 98.7274 20.3837 101.659 20.3837ZM105.591 77.0573V30.2564H95.5907L95.0256 39.1704L97.7658 41.1701C98.2815 41.511 98.3986 42.1379 98.3986 43.3963V77.0573C98.3986 78.7778 97.9651 79.121 97.2449 79.3521L94.289 80.1529V89.7442H109.7V80.1529L106.745 79.3521C105.972 79.121 105.591 78.8945 105.591 77.0573ZM128.623 74.6777C127.388 75.7073 125.919 76.5058 124.478 76.5058C121.703 76.5058 121.002 73.8747 121.002 67.1182V39.4084H128.194V27.9684H121.374C120.962 27.9684 121.002 27.9615 121.002 27.1607V11.9525H116.077C115.512 23.3924 112.783 28.4169 108.673 29.5654V39.4084H112.786C113.198 39.4084 112.783 40.216 112.783 40.9001V70.898C112.783 83.8411 115.304 89.3346 121.421 89.3346C124.353 89.3346 127.696 87.1587 129.908 84.7563L128.623 74.6777ZM30.3197 2.35663C28.9666 -0.658944 26.77 -0.658944 25.4159 2.35663L20.5346 13.2269L26.7269 27.0166C28.1663 25.9344 29.8163 26.6597 30.9639 29.2154C32.1167 31.7848 32.4403 35.4913 31.942 38.7082L37.9103 51.9992C39.3549 50.8918 41.0203 51.6079 42.1731 54.1796C43.7861 57.7672 43.7861 63.5833 42.1731 67.1731C40.5611 70.7653 37.9504 70.7653 36.3373 67.1731C35.125 64.471 34.6688 60.5059 35.2842 57.1792L29.5615 44.7851V77.405C29.5615 77.8375 30.481 78.414 30.8088 79.1416C32.4198 82.7292 32.4979 88.5453 30.8859 92.1397C29.2738 95.7273 26.7001 95.7273 25.0891 92.1397C23.4782 88.5453 23.4977 82.7315 25.1097 79.1416C25.5083 78.2562 25.4518 77.5858 26.4792 77.1373V44.2154C25.4518 43.767 25.5268 43.1012 25.1292 42.2111C23.9086 39.493 23.6148 35.505 24.2405 32.1669L18.1356 18.5693L2.01638 54.4656C0.661208 57.4835 0.661208 62.3752 2.01638 65.3885L25.5258 117.74C26.8789 120.753 29.0745 120.753 30.4297 117.74L53.8292 65.6287C55.1823 62.6132 55.1823 57.7214 53.8292 54.7059L30.3197 2.35663Z" fill="#F34F29"/>
</svg>
