<svg width="120" height="120" viewBox="0 0 120 120" fill="none" xmlns="http://www.w3.org/2000/svg">
<path d="M94.1719 92.2327C94.1719 98.6493 79.0782 103.819 60.4688 103.819C41.8594 103.819 26.7656 98.6031 26.7656 92.2327C26.7656 85.8162 41.8594 80.646 60.4688 80.646C79.0782 80.646 94.1719 85.8162 94.1719 92.2327Z" fill="#9EDCF2"/>
<path d="M94.1719 92.2327C94.1719 98.6493 79.0782 103.819 60.4688 103.819C41.8594 103.819 26.7656 98.6031 26.7656 92.2327C26.7656 85.8162 41.8594 80.646 60.4688 80.646C79.0782 80.646 94.1719 85.8162 94.1719 92.2327Z" fill="#7DBCE7"/>
<path d="M21.9843 58.1185L21 61.4422C21 61.4422 20.7656 62.6425 21.8906 62.8733C23.1093 62.8271 23.0156 61.7192 22.9218 61.3961L21.9843 58.1185Z" fill="#9EDCF2"/>
<path d="M119.906 44.1314L120 43.7159C110.109 41.7771 99.9844 41.7309 93.8438 42.0079C94.8281 38.4534 95.1562 34.2987 95.1562 29.7287C95.1562 23.1274 92.625 17.8649 88.5938 13.8949C89.2969 11.633 90.2344 6.60128 87.6562 0.184695C87.6562 0.184695 83.0625 -1.24634 72.6094 5.63186C68.5312 4.61629 64.1719 4.1085 59.8125 4.1085C55.0312 4.1085 50.2031 4.70862 45.6562 5.90884C34.875 -1.33867 30.1406 0.138532 30.1406 0.138532C27.0469 7.75534 28.9688 13.4333 29.5312 14.8182C25.875 18.6958 23.6719 23.6352 23.6719 29.6825C23.6719 34.2526 24.1875 38.361 25.5 41.9156C19.3125 41.6847 9.5625 41.7771 0 43.6697L0.09375 44.0852C9.65625 42.1925 19.5 42.1464 25.6406 42.3772C25.9219 43.1158 26.25 43.8544 26.5781 44.5468C20.4844 44.7315 10.125 45.5162 0.1875 48.286L0.328125 48.7014C10.3594 45.9317 20.8125 45.1931 26.8594 45.0084C30.5156 51.6558 37.6406 55.9951 50.3906 57.3338C48.5625 58.534 46.7344 60.5652 45.9844 64.0274C43.5 65.1814 35.7188 68.0435 31.0312 60.1036C31.0312 60.1036 28.4062 55.395 23.3906 55.0257C23.3906 55.0257 18.5156 54.9334 23.0625 58.0262C23.0625 58.0262 26.2969 59.5496 28.5469 65.2276C28.5469 65.2276 31.5 74.9217 45.6094 71.7827V81.7076C45.6094 81.7076 45.3281 85.2621 42 86.4162C42 86.4162 40.0312 87.7549 42.1406 88.4935C42.1406 88.4935 51.2812 89.2321 51.2812 81.8461V70.9517C51.2812 70.9517 50.9062 66.6125 53.0625 65.1353V83.0463C53.0625 83.0463 52.9219 87.3394 50.6719 88.9551C50.6719 88.9551 49.1719 91.5864 52.4531 90.8939C52.4531 90.8939 58.7344 90.0168 59.0156 82.7693L59.1562 64.6275H60.6562L60.7969 82.7693C61.0781 89.9707 67.3594 90.8939 67.3594 90.8939C70.6406 91.6325 69.1406 88.9551 69.1406 88.9551C66.8906 87.3394 66.75 83.0463 66.75 83.0463V65.2738C68.9062 66.9356 68.5312 70.9517 68.5312 70.9517V81.8461C68.5312 89.2321 77.6719 88.4935 77.6719 88.4935C79.7812 87.7549 77.8125 86.4162 77.8125 86.4162C74.5312 85.2159 74.2031 81.7076 74.2031 81.7076V67.3972C74.2031 61.8116 71.8125 58.8572 69.4688 57.3338C83.0625 55.9951 89.5781 51.702 92.5781 44.9623C98.5312 45.1008 109.266 45.8394 119.484 48.7014L119.625 48.286C109.453 45.4701 98.8125 44.7315 92.7656 44.5468C93.0469 43.8544 93.2812 43.1619 93.5156 42.4233C99.7969 42.1925 109.969 42.1925 119.906 44.1314Z" fill="#010101"/>
<path d="M81.8438 29.4055C84.7501 32.0368 86.4844 35.1759 86.4844 38.5457C86.4844 54.4256 74.4844 54.8411 59.6719 54.8411C44.8594 54.8411 32.8594 52.6253 32.8594 38.5457C32.8594 35.1759 34.5469 32.0368 37.4531 29.4517C42.2813 25.1124 50.4375 27.4206 59.6719 27.4206C68.9063 27.4206 77.0157 25.0663 81.8438 29.4055Z" fill="#F5CCB3"/>
<path d="M50.7657 39.3766C50.7657 43.762 48.2813 47.2704 45.1875 47.2704C42.0938 47.2704 39.6094 43.7159 39.6094 39.3766C39.6094 34.9912 42.0938 31.4829 45.1875 31.4829C48.2813 31.4367 50.7657 34.9912 50.7657 39.3766Z" fill="white"/>
<path d="M48.9844 39.4689C48.9844 42.3772 47.2969 44.7315 45.2812 44.7315C43.2188 44.7315 41.5781 42.3772 41.5781 39.4689C41.5781 36.5607 43.2656 34.2064 45.2812 34.2064C47.2969 34.2064 48.9844 36.5607 48.9844 39.4689Z" fill="#AF5C51"/>
<path d="M80.7187 39.3766C80.7187 43.762 78.2343 47.2704 75.1406 47.2704C72.0469 47.2704 69.5625 43.7159 69.5625 39.3766C69.5625 34.9912 72.0469 31.4829 75.1406 31.4829C78.1874 31.4367 80.7187 34.9912 80.7187 39.3766Z" fill="white"/>
<path d="M78.8907 39.4689C78.8907 42.3772 77.2032 44.7315 75.1876 44.7315C73.1251 44.7315 71.4844 42.3772 71.4844 39.4689C71.4844 36.5607 73.1719 34.2064 75.1876 34.2064C77.2501 34.2064 78.8907 36.5607 78.8907 39.4689ZM61.1719 46.3933C61.1719 47.1319 60.5625 47.7782 59.7656 47.7782C59.0156 47.7782 58.3594 47.1781 58.3594 46.3933C58.3594 45.6086 58.9688 45.0084 59.7656 45.0084C60.5156 45.0084 61.1719 45.6086 61.1719 46.3933ZM56.5313 49.8555C56.4375 49.6247 56.5781 49.3939 56.8125 49.3016C57.0469 49.2092 57.2813 49.3477 57.375 49.5785C57.75 50.5941 58.6875 51.2404 59.7656 51.2404C60.8438 51.2404 61.7813 50.548 62.1563 49.5785C62.25 49.3477 62.4844 49.2092 62.7188 49.3016C62.9531 49.3939 63.0938 49.6247 63 49.8555C62.5313 51.1942 61.2188 52.1175 59.7656 52.1175C58.3125 52.1175 57 51.1942 56.5313 49.8555Z" fill="#AF5C51"/>
<path d="M25.5469 56.1336C25.5469 56.5029 25.125 56.7798 24.5625 56.7798C24.0469 56.7798 23.5781 56.5029 23.5781 56.1336C23.5781 55.7643 24 55.4873 24.5625 55.4873C25.125 55.4873 25.5469 55.7643 25.5469 56.1336ZM28.2656 57.6108C28.2656 57.9801 27.8438 58.257 27.2813 58.257C26.7656 58.257 26.2969 57.9801 26.2969 57.6108C26.2969 57.2415 26.7188 56.9645 27.2813 56.9645C27.8438 56.9645 28.2656 57.2415 28.2656 57.6108ZM29.9062 59.5496C29.9062 59.9189 29.4844 60.1958 28.9219 60.1958C28.4063 60.1958 27.9375 59.9189 27.9375 59.5496C27.9375 59.1803 28.3594 58.9033 28.9219 58.9033C29.4844 58.8571 29.9062 59.1803 29.9062 59.5496ZM31.4063 61.7653C31.4063 62.1346 30.9844 62.4116 30.4219 62.4116C29.9063 62.4116 29.4375 62.1346 29.4375 61.7653C29.4375 61.396 29.8594 61.1191 30.4219 61.1191C30.9844 61.0729 31.4063 61.396 31.4063 61.7653ZM33.0469 63.7965C33.0469 64.1657 32.625 64.4427 32.0625 64.4427C31.5469 64.4427 31.0781 64.1657 31.0781 63.7965C31.0781 63.4272 31.5 63.1502 32.0625 63.1502C32.625 63.1502 33.0469 63.4272 33.0469 63.7965ZM35.2969 65.5968C35.2969 65.9661 34.875 66.243 34.3125 66.243C33.7969 66.243 33.3281 65.9661 33.3281 65.5968C33.3281 65.2275 33.75 64.9505 34.3125 64.9505C34.875 64.9043 35.2969 65.2275 35.2969 65.5968ZM38.4375 66.7508C38.4375 67.1201 38.0156 67.3971 37.4531 67.3971C36.9375 67.3971 36.4688 67.1201 36.4688 66.7508C36.4688 66.3815 36.8906 66.1046 37.4531 66.1046C38.0156 66.1046 38.4375 66.3815 38.4375 66.7508ZM41.5781 66.7508C41.5781 67.1201 41.1562 67.3971 40.5938 67.3971C40.0781 67.3971 39.6094 67.1201 39.6094 66.7508C39.6094 66.3815 40.0312 66.1046 40.5938 66.1046C41.1562 66.1046 41.5781 66.3815 41.5781 66.7508ZM44.7656 66.243C44.7656 66.6123 44.3438 66.8893 43.7813 66.8893C43.2656 66.8893 42.7969 66.6123 42.7969 66.243C42.7969 65.8737 43.2188 65.5968 43.7813 65.5968C44.2969 65.5968 44.7656 65.8737 44.7656 66.243Z" fill="#C4E5D9"/>
</svg>
