<svg width="184" height="118" viewBox="0 0 184 118" fill="none" xmlns="http://www.w3.org/2000/svg">
<g clip-path="url(#clip0)">
<path d="M15.2853 91.7009L21.4307 1.71056L108.432 15.4902L86.4683 102.975L49.1915 107.354" fill="#E34F26"/>
<path d="M50.6066 99.6682L80.6025 96.3114L99.3924 21.3751L63.8974 15.7533" fill="#EF652A"/>
<path d="M58.6727 48.7405L44.2046 46.449L45.0122 35.1076L60.4448 37.5518L62.1558 26.749L34.7629 22.4104L32.4319 55.8559L56.9312 59.7363L58.6727 48.7405ZM53.9884 77.0674L42.3546 71.8631L42.9579 63.06L32.1551 61.349L30.7862 78.7317L52.1858 88.449L53.9884 77.0674Z" fill="#EBEBEB"/>
<path d="M58.4798 48.7099L56.7383 59.7057L70.2418 61.8445L66.661 75.7129L53.9884 77.0674L52.1858 88.449L75.5408 85.8201L83.9436 52.743L58.4798 48.7099ZM61.9629 26.7185L60.2519 37.5213L86.6803 41.7071L89.3558 31.0571L61.9629 26.7185Z" fill="white"/>
</g>
<g clip-path="url(#clip1)">
<path d="M77.4027 17.2368L97.0506 105.427L133.831 110.671L167.989 96.0938L164.154 5.81578L77.4027 17.2368Z" fill="#2196F3"/>
<path d="M151.104 37.2191L151.582 48.56L152.995 82.5602L131.338 91.7342L131.32 91.7428L108.039 88.4788L104.157 71.1118L115.162 69.6629L117.18 78.6704L129.828 80.359L129.833 80.352L141.631 75.4451L141.298 60.0379L102.844 65.2077L100.386 54.9659L140.806 49.1592L140.16 37.9349L97.7912 43.6327L95.7171 33.3845L150.643 26.1533L151.104 37.2191Z" fill="#FAFAFA"/>
</g>
<defs>
<clipPath id="clip0">
<rect width="100" height="100" fill="white" transform="translate(15.6434 0.793945) rotate(9)"/>
</clipPath>
<clipPath id="clip1">
<rect width="100" height="100" fill="white" transform="translate(71.2061 18.0526) rotate(-7.5)"/>
</clipPath>
</defs>
</svg>
