<svg width="162" height="120" viewBox="0 0 162 120" fill="none" xmlns="http://www.w3.org/2000/svg">
<path d="M141.992 20H161.991L111.995 119.91L62 20H100.246L111.995 43.1674L123.494 20H141.992Z" fill="#41B883"/>
<path d="M62 20L111.995 119.91L161.991 20H141.992L111.995 79.9457L81.7481 20H62Z" fill="#41B883"/>
<path d="M81.7482 20L111.995 80.2353L141.993 20H123.494L111.995 43.1674L100.246 20H81.7482Z" fill="#35495E"/>
<path d="M0.0402832 16.736L49.1828 0.256256L99.6488 16.443L91.4775 77.6379L49.1828 99.6842L7.54987 77.9309L0.0402832 16.736Z" fill="#E23237"/>
<path d="M99.6488 16.443L49.1829 0.256256V99.6842L91.4775 77.6746L99.6488 16.443Z" fill="#B52E31"/>
<path d="M49.2605 11.8654L18.639 75.99L30.0782 75.8069L36.2261 61.3411H63.6961L70.4275 75.99L81.3608 76.1731L49.2605 11.8654ZM49.3386 32.4103L59.6884 52.7716H40.2334L49.3386 32.4103Z" fill="white"/>
</svg>
