<svg width="100" height="100" viewBox="0 0 100 100" fill="none" xmlns="http://www.w3.org/2000/svg">
<path d="M90.1058 70.5135H9.89423V18.9923C9.89423 16.927 11.5692 15.252 13.6346 15.252H86.3654C88.4308 15.252 90.1058 16.925 90.1058 18.9923V70.5135Z" stroke="black" stroke-width="2" stroke-miterlimit="10" stroke-linecap="round" stroke-linejoin="round"/>
<path d="M93.1904 84.7481H6.80769C6.28828 84.7481 5.77802 84.6113 5.32819 84.3517C4.87835 84.092 4.50478 83.7185 4.24501 83.2687C3.98523 82.8189 3.8484 82.3087 3.84827 81.7893C3.84813 81.2699 3.98469 80.7596 4.24422 80.3096L9.8923 70.5135H90.1038L95.7519 80.3096C96.0115 80.7596 96.148 81.2699 96.1479 81.7893C96.1477 82.3087 96.0109 82.8189 95.7511 83.2687C95.4914 83.7185 95.1178 84.092 94.668 84.3517C94.2181 84.6113 93.7079 84.7481 93.1885 84.7481H93.1904Z" stroke="black" stroke-width="2" stroke-miterlimit="10" stroke-linecap="round" stroke-linejoin="round"/>
<path d="M51.2827 77.6307H48.7173" stroke="black" stroke-width="2" stroke-miterlimit="10" stroke-linecap="round" stroke-linejoin="round"/>
<path d="M43.1288 58.6115L28.6404 44.123L43.1288 29.6346" stroke="black" stroke-width="2" stroke-miterlimit="10" stroke-linecap="round" stroke-linejoin="round"/>
<path d="M56.8712 58.6115L71.3596 44.123L56.8712 29.6346" stroke="black" stroke-width="2" stroke-miterlimit="10" stroke-linecap="round" stroke-linejoin="round"/>
<path d="M90.1058 70.5135H9.89423V18.9923C9.89423 16.927 11.5692 15.252 13.6346 15.252H86.3654C88.4308 15.252 90.1058 16.925 90.1058 18.9923V70.5135Z" stroke="black" stroke-width="3" stroke-miterlimit="10" stroke-linecap="round" stroke-linejoin="round"/>
<path d="M93.1904 84.7481H6.80769C6.28828 84.7481 5.77802 84.6113 5.32819 84.3517C4.87835 84.092 4.50478 83.7185 4.24501 83.2687C3.98523 82.8189 3.8484 82.3087 3.84827 81.7893C3.84813 81.2699 3.98469 80.7596 4.24422 80.3096L9.8923 70.5135H90.1038L95.7519 80.3096C96.0115 80.7596 96.148 81.2699 96.1479 81.7893C96.1477 82.3087 96.0109 82.8189 95.7511 83.2687C95.4914 83.7185 95.1178 84.092 94.668 84.3517C94.2181 84.6113 93.7079 84.7481 93.1885 84.7481H93.1904Z" stroke="black" stroke-width="3" stroke-miterlimit="10" stroke-linecap="round" stroke-linejoin="round"/>
<path d="M51.2827 77.6308H48.7173" stroke="black" stroke-width="3" stroke-miterlimit="10" stroke-linecap="round" stroke-linejoin="round"/>
<path d="M43.1288 58.6116L28.6404 44.1231L43.1288 29.6346" stroke="black" stroke-width="3" stroke-miterlimit="10" stroke-linecap="round" stroke-linejoin="round"/>
<path d="M56.8712 58.6116L71.3596 44.1231L56.8712 29.6346" stroke="black" stroke-width="3" stroke-miterlimit="10" stroke-linecap="round" stroke-linejoin="round"/>
</svg>
