<svg width="100" height="100" viewBox="0 0 100 100" fill="none" xmlns="http://www.w3.org/2000/svg">
<path d="M50 20C22.3868 20 0 33.4317 0 50C0 66.5683 22.3868 80 50 80C77.6132 80 100 66.5683 100 50C100 33.4317 77.6132 20 50 20ZM36.9897 55.8448C35.7965 57.1664 34.4715 57.712 33.0122 58.274C31.553 58.8369 29.696 58.7206 27.438 58.7206H22.3205L20.9022 68.4103H14.927L20.2589 35.4656H31.7494C35.2064 35.4656 37.7279 36.6429 39.3132 38.7911C40.8985 40.9392 41.3748 43.9886 40.743 47.8382C40.4819 49.4244 40.0424 50.8992 39.422 52.2131C38.8009 53.528 37.9898 54.7557 36.9897 55.8448ZM54.4309 58.7206L56.7887 44.7482C57.0572 43.1126 56.9589 41.8976 56.4933 41.3036C56.0268 40.7086 55.0349 40.3104 53.5183 40.3104H48.7797L45.7263 58.7206H39.7977L45.1296 26.7449H51.0582L49.6407 35.4656H54.9219C58.2455 35.4656 60.537 36.2553 61.7982 37.6273C63.0594 38.9994 63.4375 40.8792 62.9333 43.9527L60.4527 58.7206H54.4309ZM87.3793 47.8896C87.119 49.4758 86.6787 50.9254 86.0592 52.2383C85.4388 53.5532 84.6286 54.7557 83.6277 55.8448C82.4344 57.1664 81.1086 57.712 79.6502 58.274C78.1918 58.8369 76.3332 58.7206 74.0752 58.7206H68.9577L67.5402 68.4103H61.565L66.8961 35.4656H78.3874C81.8444 35.4656 84.3659 36.6429 85.9503 38.7911C87.534 40.9392 88.0111 44.0409 87.3793 47.8896ZM76.1229 40.3104H72.03L69.7982 53.8758H73.4336C75.8413 53.8758 77.6369 53.5948 78.8154 52.5193C79.9956 51.4457 80.7903 49.7791 81.2036 47.2666C81.5997 44.8529 81.4196 42.9702 80.6634 41.978C79.9064 40.9858 78.3931 40.3104 76.1229 40.3104ZM29.4857 40.3104H25.392L23.1602 53.8758H26.7948C29.2034 53.8758 30.9981 53.5948 32.1775 52.5193C33.3568 51.4457 34.1523 49.7791 34.5648 47.2666C34.9609 44.8529 34.7808 42.9702 34.0246 41.978C33.2684 40.9858 31.756 40.3104 29.4857 40.3104Z" fill="#6181B6"/>
</svg>
