<svg width="100" height="100" viewBox="0 0 100 100" fill="none" xmlns="http://www.w3.org/2000/svg">
<path d="M7.8125 6.24792C7.39811 6.24797 7.00071 6.41248 6.70769 6.7055C6.41467 6.99851 6.25004 7.39604 6.25 7.81042V92.1854C6.25004 92.5998 6.41467 92.9971 6.70769 93.2902C7.00071 93.5832 7.39811 93.7479 7.8125 93.7479H92.1875C92.6019 93.7479 92.9993 93.5832 93.2923 93.2902C93.5853 92.9971 93.75 92.5998 93.75 92.1854V28.0314V7.81042C93.75 7.39604 93.5853 6.99851 93.2923 6.7055C92.9993 6.41248 92.6019 6.24797 92.1875 6.24792H7.8125ZM9.375 9.37292H90.625V28.0314V90.6229H9.375V9.37292Z" fill="#2B4255"/>
<path fill-rule="evenodd" clip-rule="evenodd" d="M7.8125 18.7479V21.8729H92.1875V18.7479H7.8125Z" fill="#2B4255"/>
<path d="M15.625 14.0635C15.625 14.2687 15.5846 14.4717 15.506 14.6613C15.4275 14.8508 15.3124 15.0231 15.1673 15.1682C15.0222 15.3133 14.85 15.4285 14.6604 15.507C14.4709 15.5855 14.2677 15.626 14.0625 15.626C13.8573 15.626 13.6541 15.5855 13.4645 15.507C13.275 15.4285 13.1027 15.3133 12.9576 15.1682C12.8125 15.0231 12.6975 14.8508 12.6189 14.6613C12.5404 14.4717 12.5 14.2687 12.5 14.0635C12.5 13.8583 12.5404 13.6549 12.6189 13.4653C12.6975 13.2758 12.8125 13.1038 12.9576 12.9588C13.1027 12.8137 13.275 12.6985 13.4645 12.62C13.6541 12.5415 13.8573 12.501 14.0625 12.501C14.2677 12.501 14.4709 12.5415 14.6604 12.62C14.85 12.6985 15.0222 12.8137 15.1673 12.9588C15.3124 13.1038 15.4275 13.2758 15.506 13.4653C15.5846 13.6549 15.625 13.8583 15.625 14.0635ZM21.875 14.0631C21.875 14.2683 21.8346 14.4717 21.756 14.6613C21.6775 14.8508 21.5624 15.0228 21.4173 15.1678C21.2722 15.3129 21.1 15.4281 20.9104 15.5066C20.7209 15.5851 20.5177 15.6256 20.3125 15.6256C20.1073 15.6256 19.9041 15.5851 19.7145 15.5066C19.525 15.4281 19.3527 15.3129 19.2076 15.1678C19.0625 15.0228 18.9475 14.8508 18.8689 14.6613C18.7904 14.4717 18.75 14.2683 18.75 14.0631C18.75 13.8579 18.7904 13.6549 18.8689 13.4653C18.9475 13.2758 19.0625 13.1035 19.2076 12.9584C19.3527 12.8133 19.525 12.6982 19.7145 12.6196C19.9041 12.5411 20.1073 12.5006 20.3125 12.5006C20.5177 12.5006 20.7209 12.5411 20.9104 12.6196C21.1 12.6982 21.2722 12.8133 21.4173 12.9584C21.5624 13.1035 21.6775 13.2758 21.756 13.4653C21.8346 13.6549 21.875 13.8579 21.875 14.0631ZM28.1251 14.0631C28.1251 14.4775 27.9604 14.8748 27.6674 15.1678C27.3743 15.4609 26.9769 15.6256 26.5625 15.6256C26.1481 15.6256 25.7506 15.4609 25.4576 15.1678C25.1646 14.8748 24.9999 14.4775 24.9999 14.0631C24.9999 13.6487 25.1646 13.2514 25.4576 12.9584C25.7506 12.6654 26.1481 12.5006 26.5625 12.5006C26.9769 12.5006 27.3743 12.6654 27.6674 12.9584C27.9604 13.2514 28.1251 13.6487 28.1251 14.0631ZM15.625 26.5631C15.625 26.7683 15.5846 26.9717 15.506 27.1613C15.4275 27.3508 15.3124 27.5228 15.1673 27.6678C15.0222 27.8129 14.85 27.9281 14.6604 28.0066C14.4709 28.0851 14.2677 28.1256 14.0625 28.1256C13.8573 28.1256 13.6541 28.0851 13.4645 28.0066C13.275 27.9281 13.1027 27.8129 12.9576 27.6678C12.8125 27.5228 12.6975 27.3508 12.6189 27.1613C12.5404 26.9717 12.5 26.7683 12.5 26.5631C12.5 26.3579 12.5404 26.1549 12.6189 25.9653C12.6975 25.7758 12.8125 25.6035 12.9576 25.4584C13.1027 25.3133 13.275 25.1982 13.4645 25.1196C13.6541 25.0411 13.8573 25.0006 14.0625 25.0006C14.2677 25.0006 14.4709 25.0411 14.6604 25.1196C14.85 25.1982 15.0222 25.3133 15.1673 25.4584C15.3124 25.6035 15.4275 25.7758 15.506 25.9653C15.5846 26.1549 15.625 26.3579 15.625 26.5631ZM15.625 32.8131C15.625 33.0183 15.5846 33.2217 15.506 33.4113C15.4275 33.6008 15.3124 33.7728 15.1673 33.9178C15.0222 34.0629 14.85 34.1781 14.6604 34.2566C14.4709 34.3351 14.2677 34.3756 14.0625 34.3756C13.8573 34.3756 13.6541 34.3351 13.4645 34.2566C13.275 34.1781 13.1027 34.0629 12.9576 33.9178C12.8125 33.7728 12.6975 33.6008 12.6189 33.4113C12.5404 33.2217 12.5 33.0183 12.5 32.8131C12.5 32.6079 12.5404 32.4049 12.6189 32.2153C12.6975 32.0258 12.8125 31.8535 12.9576 31.7084C13.1027 31.5633 13.275 31.4482 13.4645 31.3696C13.6541 31.2911 13.8573 31.2506 14.0625 31.2506C14.2677 31.2506 14.4709 31.2911 14.6604 31.3696C14.85 31.4482 15.0222 31.5633 15.1673 31.7084C15.3124 31.8535 15.4275 32.0258 15.506 32.2153C15.5846 32.4049 15.625 32.6079 15.625 32.8131ZM15.625 39.0631C15.625 39.2683 15.5846 39.4717 15.506 39.6613C15.4275 39.8508 15.3124 40.0228 15.1673 40.1678C15.0222 40.3129 14.85 40.4281 14.6604 40.5066C14.4709 40.5851 14.2677 40.6256 14.0625 40.6256C13.8573 40.6256 13.6541 40.5851 13.4645 40.5066C13.275 40.4281 13.1027 40.3129 12.9576 40.1678C12.8125 40.0228 12.6975 39.8508 12.6189 39.6613C12.5404 39.4717 12.5 39.2683 12.5 39.0631C12.5 38.8579 12.5404 38.6549 12.6189 38.4653C12.6975 38.2758 12.8125 38.1035 12.9576 37.9584C13.1027 37.8133 13.275 37.6982 13.4645 37.6196C13.6541 37.5411 13.8573 37.5006 14.0625 37.5006C14.2677 37.5006 14.4709 37.5411 14.6604 37.6196C14.85 37.6982 15.0222 37.8133 15.1673 37.9584C15.3124 38.1035 15.4275 38.2758 15.506 38.4653C15.5846 38.6549 15.625 38.8579 15.625 39.0631ZM15.625 45.3131C15.625 45.5183 15.5846 45.7217 15.506 45.9113C15.4275 46.1008 15.3124 46.2728 15.1673 46.4178C15.0222 46.5629 14.85 46.6781 14.6604 46.7566C14.4709 46.8351 14.2677 46.8756 14.0625 46.8756C13.8573 46.8756 13.6541 46.8351 13.4645 46.7566C13.275 46.6781 13.1027 46.5629 12.9576 46.4178C12.8125 46.2728 12.6975 46.1008 12.6189 45.9113C12.5404 45.7217 12.5 45.5183 12.5 45.3131C12.5 45.1079 12.5404 44.9049 12.6189 44.7153C12.6975 44.5258 12.8125 44.3535 12.9576 44.2084C13.1027 44.0633 13.275 43.9482 13.4645 43.8696C13.6541 43.7911 13.8573 43.7506 14.0625 43.7506C14.2677 43.7506 14.4709 43.7911 14.6604 43.8696C14.85 43.9482 15.0222 44.0633 15.1673 44.2084C15.3124 44.3535 15.4275 44.5258 15.506 44.7153C15.5846 44.9049 15.625 45.1079 15.625 45.3131ZM15.625 51.5631C15.625 51.7683 15.5846 51.9717 15.506 52.1613C15.4275 52.3508 15.3124 52.5228 15.1673 52.6678C15.0222 52.8129 14.85 52.9281 14.6604 53.0066C14.4709 53.0851 14.2677 53.1256 14.0625 53.1256C13.8573 53.1256 13.6541 53.0851 13.4645 53.0066C13.275 52.9281 13.1027 52.8129 12.9576 52.6678C12.8125 52.5228 12.6975 52.3508 12.6189 52.1613C12.5404 51.9717 12.5 51.7683 12.5 51.5631C12.5 51.3579 12.5404 51.1549 12.6189 50.9653C12.6975 50.7758 12.8125 50.6035 12.9576 50.4584C13.1027 50.3133 13.275 50.1982 13.4645 50.1196C13.6541 50.0411 13.8573 50.0006 14.0625 50.0006C14.2677 50.0006 14.4709 50.0411 14.6604 50.1196C14.85 50.1982 15.0222 50.3133 15.1673 50.4584C15.3124 50.6035 15.4275 50.7758 15.506 50.9653C15.5846 51.1549 15.625 51.3579 15.625 51.5631ZM15.625 57.8131C15.625 58.0183 15.5846 58.2217 15.506 58.4113C15.4275 58.6008 15.3124 58.7728 15.1673 58.9178C15.0222 59.0629 14.85 59.1781 14.6604 59.2566C14.4709 59.3351 14.2677 59.3756 14.0625 59.3756C13.8573 59.3756 13.6541 59.3351 13.4645 59.2566C13.275 59.1781 13.1027 59.0629 12.9576 58.9178C12.8125 58.7728 12.6975 58.6008 12.6189 58.4113C12.5404 58.2217 12.5 58.0183 12.5 57.8131C12.5 57.6079 12.5404 57.4049 12.6189 57.2153C12.6975 57.0258 12.8125 56.8535 12.9576 56.7084C13.1027 56.5633 13.275 56.4482 13.4645 56.3696C13.6541 56.2911 13.8573 56.2506 14.0625 56.2506C14.2677 56.2506 14.4709 56.2911 14.6604 56.3696C14.85 56.4482 15.0222 56.5633 15.1673 56.7084C15.3124 56.8535 15.4275 57.0258 15.506 57.2153C15.5846 57.4049 15.625 57.6079 15.625 57.8131ZM15.625 64.0631C15.625 64.2683 15.5846 64.4717 15.506 64.6613C15.4275 64.8508 15.3124 65.0228 15.1673 65.1678C15.0222 65.3129 14.85 65.4281 14.6604 65.5066C14.4709 65.5851 14.2677 65.6256 14.0625 65.6256C13.8573 65.6256 13.6541 65.5851 13.4645 65.5066C13.275 65.4281 13.1027 65.3129 12.9576 65.1678C12.8125 65.0228 12.6975 64.8508 12.6189 64.6613C12.5404 64.4717 12.5 64.2683 12.5 64.0631C12.5 63.8579 12.5404 63.6549 12.6189 63.4653C12.6975 63.2758 12.8125 63.1035 12.9576 62.9584C13.1027 62.8133 13.275 62.6982 13.4645 62.6196C13.6541 62.5411 13.8573 62.5006 14.0625 62.5006C14.2677 62.5006 14.4709 62.5411 14.6604 62.6196C14.85 62.6982 15.0222 62.8133 15.1673 62.9584C15.3124 63.1035 15.4275 63.2758 15.506 63.4653C15.5846 63.6549 15.625 63.8579 15.625 64.0631ZM15.625 70.3131C15.625 70.5183 15.5846 70.7217 15.506 70.9113C15.4275 71.1008 15.3124 71.2728 15.1673 71.4178C15.0222 71.5629 14.85 71.6781 14.6604 71.7566C14.4709 71.8351 14.2677 71.8756 14.0625 71.8756C13.8573 71.8756 13.6541 71.8351 13.4645 71.7566C13.275 71.6781 13.1027 71.5629 12.9576 71.4178C12.8125 71.2728 12.6975 71.1008 12.6189 70.9113C12.5404 70.7217 12.5 70.5183 12.5 70.3131C12.5 70.1079 12.5404 69.9049 12.6189 69.7153C12.6975 69.5258 12.8125 69.3535 12.9576 69.2084C13.1027 69.0633 13.275 68.9482 13.4645 68.8696C13.6541 68.7911 13.8573 68.7506 14.0625 68.7506C14.2677 68.7506 14.4709 68.7911 14.6604 68.8696C14.85 68.9482 15.0222 69.0633 15.1673 69.2084C15.3124 69.3535 15.4275 69.5258 15.506 69.7153C15.5846 69.9049 15.625 70.1079 15.625 70.3131ZM15.625 76.5631C15.625 76.7683 15.5846 76.9717 15.506 77.1613C15.4275 77.3508 15.3124 77.5228 15.1673 77.6678C15.0222 77.8129 14.85 77.9281 14.6604 78.0066C14.4709 78.0851 14.2677 78.1256 14.0625 78.1256C13.8573 78.1256 13.6541 78.0851 13.4645 78.0066C13.275 77.9281 13.1027 77.8129 12.9576 77.6678C12.8125 77.5228 12.6975 77.3508 12.6189 77.1613C12.5404 76.9717 12.5 76.7683 12.5 76.5631C12.5 76.3579 12.5404 76.1549 12.6189 75.9653C12.6975 75.7758 12.8125 75.6035 12.9576 75.4584C13.1027 75.3133 13.275 75.1982 13.4645 75.1196C13.6541 75.0411 13.8573 75.0006 14.0625 75.0006C14.2677 75.0006 14.4709 75.0411 14.6604 75.1196C14.85 75.1982 15.0222 75.3133 15.1673 75.4584C15.3124 75.6035 15.4275 75.7758 15.506 75.9653C15.5846 76.1549 15.625 76.3579 15.625 76.5631ZM15.625 82.8131C15.625 83.0183 15.5846 83.2217 15.506 83.4113C15.4275 83.6008 15.3124 83.7728 15.1673 83.9178C15.0222 84.0629 14.85 84.1781 14.6604 84.2566C14.4709 84.3351 14.2677 84.3756 14.0625 84.3756C13.8573 84.3756 13.6541 84.3351 13.4645 84.2566C13.275 84.1781 13.1027 84.0629 12.9576 83.9178C12.8125 83.7728 12.6975 83.6008 12.6189 83.4113C12.5404 83.2217 12.5 83.0183 12.5 82.8131C12.5 82.6079 12.5404 82.4049 12.6189 82.2153C12.6975 82.0258 12.8125 81.8535 12.9576 81.7084C13.1027 81.5633 13.275 81.4482 13.4645 81.3696C13.6541 81.2911 13.8573 81.2506 14.0625 81.2506C14.2677 81.2506 14.4709 81.2911 14.6604 81.3696C14.85 81.4482 15.0222 81.5633 15.1673 81.7084C15.3124 81.8535 15.4275 82.0258 15.506 82.2153C15.5846 82.4049 15.625 82.6079 15.625 82.8131Z" fill="#F05542"/>
<path fill-rule="evenodd" clip-rule="evenodd" d="M21.875 24.9979V28.1229H37.5V24.9979H21.875Z" fill="#2B4255"/>
<path fill-rule="evenodd" clip-rule="evenodd" d="M40.625 24.9979V28.1229H46.875V24.9979H40.625Z" fill="#F05542"/>
<path fill-rule="evenodd" clip-rule="evenodd" d="M50 24.9979V28.1229H81.25V24.9979H50ZM21.875 31.2479V34.3729H25V31.2479H21.875Z" fill="#2B4255"/>
<path fill-rule="evenodd" clip-rule="evenodd" d="M28.125 31.2479V34.3729H53.125V31.2479H28.125Z" fill="#F05542"/>
<path fill-rule="evenodd" clip-rule="evenodd" d="M56.25 31.2479V34.3729H59.375V31.2479H56.25Z" fill="#2B4255"/>
<path fill-rule="evenodd" clip-rule="evenodd" d="M62.5 31.2479V34.3729H75V31.2479H62.5Z" fill="#F05542"/>
<path fill-rule="evenodd" clip-rule="evenodd" d="M21.875 37.4979V40.6229H46.875V37.4979H21.875Z" fill="#2B4255"/>
<path fill-rule="evenodd" clip-rule="evenodd" d="M21.875 43.7479V46.8729H28.125V43.7479H21.875Z" fill="#F05542"/>
<path fill-rule="evenodd" clip-rule="evenodd" d="M31.25 43.7479V46.8729H53.125V43.7479H31.25ZM34.375 49.9979V53.1229H46.875V49.9979H34.375ZM34.375 56.2479V59.3729H53.125V56.2479H34.375Z" fill="#2B4255"/>
<path fill-rule="evenodd" clip-rule="evenodd" d="M56.25 56.2479V59.3729H59.375V56.2479H56.25Z" fill="#F05542"/>
<path fill-rule="evenodd" clip-rule="evenodd" d="M34.375 62.4979V65.6229H53.125V62.4979H34.375Z" fill="#2B4255"/>
<path fill-rule="evenodd" clip-rule="evenodd" d="M56.25 62.4979V65.6229H59.375V62.4979H56.25Z" fill="#F05542"/>
<path fill-rule="evenodd" clip-rule="evenodd" d="M34.375 68.7479V71.8729H40.625V68.7479H34.375ZM21.875 74.9979V78.1229H46.875V74.9979H21.875ZM21.875 81.2479V84.3729H37.5V81.2479H21.875Z" fill="#2B4255"/>
<path fill-rule="evenodd" clip-rule="evenodd" d="M40.625 81.2479V84.3729H65.625V81.2479H40.625ZM50 74.9979V78.1229H56.25V74.9979H50Z" fill="#F05542"/>
</svg>
