<svg width="46" height="46" viewBox="0 0 46 46" fill="none" xmlns="http://www.w3.org/2000/svg">
<path d="M5.74976 40.25L17.2498 28.75L5.74976 40.25ZM26.8331 32.5833C25.0712 32.5833 23.3265 32.2363 21.6988 31.5621C20.071 30.8878 18.5919 29.8995 17.3461 28.6537C16.1002 27.4078 15.112 25.9288 14.4377 24.301C13.7635 22.6732 13.4164 20.9286 13.4164 19.1667C13.4164 17.4048 13.7635 15.6601 14.4377 14.0323C15.112 12.4045 16.1002 10.9255 17.3461 9.67965C18.5919 8.4338 20.071 7.44553 21.6988 6.77128C23.3265 6.09703 25.0712 5.75 26.8331 5.75C30.3914 5.75 33.804 7.16354 36.3201 9.67965C38.8362 12.1958 40.2498 15.6083 40.2498 19.1667C40.2498 22.725 38.8362 26.1376 36.3201 28.6537C33.804 31.1698 30.3914 32.5833 26.8331 32.5833Z" stroke="black" stroke-width="2" stroke-linecap="round" stroke-linejoin="round"/>
</svg>
